<mxfile host="app.diagrams.net" modified="2024-04-19T13:59:55.066Z" agent="Mozilla/5.0 (Windows NT 10.0; Win64; x64) AppleWebKit/537.36 (KHTML, like Gecko) Chrome/123.0.0.0 Safari/537.36" etag="pL2KtOJVxHpg-ayl9eL0" version="24.2.5" type="github">
  <diagram name="Page-1" id="Y7nYRPwqVtEBecf9pVXd">
    <mxGraphModel dx="2271" dy="1933" grid="1" gridSize="10" guides="1" tooltips="1" connect="1" arrows="1" fold="1" page="1" pageScale="1" pageWidth="827" pageHeight="1169" math="0" shadow="0">
      <root>
        <mxCell id="0" />
        <mxCell id="1" parent="0" />
        <UserObject label="" plantUmlData="{&#xa;  &quot;data&quot;: &quot;@startuml\n\npackage \&quot;Frontend (Angular)\&quot; {\n  rectangle \&quot;User Interface Components\&quot; as UIComp\n  rectangle \&quot;Service Components\&quot; as SvcComp\n  rectangle \&quot;Routing Module\&quot; as RouterModule\n  rectangle \&quot;Authentication Module\&quot; as AuthModule\n  rectangle \&quot;Shared Module\&quot; as SharedModule\n}\n\npackage \&quot;Backend (Spring Boot)\&quot; {\n  rectangle \&quot;Presentation Layer\\n(Controllers)\&quot; as Controller\n  rectangle \&quot;Service Layer\&quot; as Service\n  rectangle \&quot;Data Access Layer\\n(Repositories)\&quot; as Repository\n  rectangle \&quot;Model Layer\&quot; as Model\n}\n\npackage \&quot;Python Integration (py4j)\&quot; {\n  rectangle \&quot;Python Components\&quot; as PythonComp\n  rectangle \&quot;Java Components\&quot; as JavaComp\n  rectangle \&quot;py4j Gateway\&quot; as Py4jGateway\n}\n\ndatabase \&quot;MongoDB\&quot; as Mongo\n\nrectangle \&quot;Deployment and Scaling\&quot; as Deployment\n\nrectangle \&quot;Security and Authentication\&quot; as Security\n\nrectangle \&quot;Monitoring and Logging\&quot; as Monitoring\n\nUIComp -up-|&gt; RouterModule\nUIComp -down-|&gt; AuthModule\nUIComp -right-|&gt; SharedModule\nUIComp -right-|&gt; SvcComp\nRouterModule -right-|&gt; AuthModule\nSvcComp -right-|&gt; AuthModule\n\nController -up-|&gt; Service\nService -up-|&gt; Repository\nRepository -up-|&gt; Model\n\nPythonComp -[hidden]-&gt; Py4jGateway\nJavaComp -[hidden]-&gt; Py4jGateway\n\nService -down-|&gt; PythonComp\nPythonComp -up-|&gt; Service\n\nMongo -up-|&gt; Repository\n\n@enduml\n&quot;,&#xa;  &quot;format&quot;: &quot;png&quot;&#xa;}" id="9hY5J7lQDF0JAzquj2sX-1">
          <mxCell style="shape=image;noLabel=1;verticalAlign=top;aspect=fixed;imageAspect=0;image=data:image/png,iVBORw0KGgoAAAANSUhEUgAABYcAAAIECAIAAADNaQZAAAAAKnRFWHRjb3B5bGVmdABHZW5lcmF0ZWQgYnkgaHR0cHM6Ly9wbGFudHVtbC5jb212zsofAAACVmlUWHRwbGFudHVtbAABAAAAeJx1VMFu2zAMvesriJySg4smzbYih6JNsxbNEiyIm162HTSbddQ5kiHLKYxt/z5Ktmurzm4y36P4SD75Ojdcm+KQsoxHv3iCMLjTShqUMQxvZFKkXI8G8JsBaIwMl0lKlF2OGh6IpZ95hHCrDpmSKE0+AJ7D7sEG/IwQ9VH0qeEx6nO3qjBCJrBWcZGi49kQ6irgk28Ks6frRMSNULKbY5FTGeGea4y7zCpSc/+ydhRzOrhJhJm2iuZKmf40NhpzklAJWPES9Xc5vKUhapWmqPORK9IGTk/GJVZyqohPW3DD4SaKMM/famwxU7kwSgusi7xFSj+besO0U8J9e61uSrMn+Xapia5aGWbl9OVEuxXz3SaraH+ZS37k77k21mfaanDPDb7ysr5y+lJ/W6kxTeAnz103MlGLed0JnRnrTgqzVJUHqgacdhdGPKXdOXILeRkhRoUWpnR831D1QircS6LCbvRkC5u2UknSlGkhxqrHAEGRBX+ufB83UKxepQU7hm0gLZK9sZhn0T5aP6Pu9R24c3HNPA2y1qON4MaLjUubPlqftccGrMzFWkdA8G0v4hjlj+DK22pjhP8S2rrNkDo+6xbw1TLnihNir+k1258d26Rcmt16BUd6oNbs47PJ+eTibHwxpFwySgTjMYwvZ5Pz2YdPcL9+BIuPnGTYFmSQA87ga4ZyufjSBOCzPAr6fTqHLZ/WLeHjNJgL4wTScJ/WbIHPvEgNZUQqJqfMYPd4F1yyFdmroBc5A5S0D7pXl4SF7B/tP+61LVF1xgAAgABJREFUeF7s3XmUFNXd+H/zxD+Sk+c5yMnzByfL4EkCEWYGBgzKIAQCgoTBFRNgFBg1RiVGIIqKSGQZGBAkbjBEgUgyoiwTEBDcgwhKENEYEQMCyiKyzDDDOszA8Ksv9bOe8vanq2u5XV3d/X79wam+99bSVZ/+1J0PvZx3FgAAAAAAIBXOUxsAAAAAAABCQVUCAAAAAACkBlUJAAAAAACQGlQlAAAAAABAashVic8///wfSLV169adOnVKvTYAAACpwywxAzDJBBApQlWitLT0m9/85nmIgAsuuOD+++8/efKkepEAAABCxywxYzDJBBAdalXiyy+/NG42N954o1pTReiWLl06cOBA43L06NFDuUwAAAAhY5aYMZhkAogUtSqxdu3a884777XXXlPakSp/+ctfjCuyYsUKtQMAACBEzBIzDJNMABGhViX+8Y9/GOnJ+FdpR6o0NDR873vfu+qqq9QOAACAEDFLzDBMMgFERNpXJUaNGvXSSy+prTFOnjw5fPjwDRs2qB1aTZ061diLm+MRGavPnz9fbT33HM8///wvvvhC7QAAAAiL9lmiy1mcGy43lYwJoctdpxaTTABRlrgqYWSr4Tbjx4//v9HBaEniF1xwwdixY9XWGH/4wx+MkYsXL7ZazNuSQczR/vTp0+e//uu/3ByPyFjdOPmx52Tbtm3f+MY3ysrKlHYAAIDQOM8SfUyoXM7i3HC5KWVCaM0G/R2/yeWuXQp4Sk2xc2wmmQCiLHFV4oJzLvxK586d/290MFqSuMuNxA773e9+ZzxT4xmJOVpkbCHhZyljd+RJvNW7devWokWLxsZGtQMAACAUzrPEvLw8lxMqS7xpjw8uN6UMs2aDniaEig4dOjz55JNqa3zO88mAp9Qkng2x8SyTTAAR4KoqEZvCRo0a9ac//Ump44r1ZnGkSdmy+9WtkZMmTRIPT2Fs5Pvf/75yw7BWtBac92Uwzow10rpJKNVo30/KZNzY/ud//if2DvS3v/3N2Pvq1auVdgAAgHA4zxKtZXHyY280KKu8+eabVqO4ujh3Cj4hFI9f3JfYeFb69K44UpxPisRDEs+J2KisaMckE0Bknac8dr7f2BvPO8deWhbrzeLI559/3tjmt771rW7duhkLn332mdF444032ldfunRpvNUfeOABq8XYSOzhKWKfgnHDMNY1b0vGQt++fc1hsftSnlTv3r2VDSobVx5ah2qubmZ8cUeW2KM1nDhxwmgfNGiQ0g4AABAO51mitSxOfpTGRx991Frlk08+MeZXP/jBD8zthDkhtLdYb3kwGr/xjW9YW3aevMV+elccKc4nReIpFefYYqM4x7bEnoGzTDIBRMB5ymPxfmPmNZPVaHjzzTfNZbNdTKPiyBtuuOGCcxnfSJrGwtq1az2tbi3069fP2Ii1Vjz2Lce2uNxXwkbxYfPmzSdPnqx0iTuyxLaYjHvPt7/97cOHD6sdAAAAySfOErt37z5jxowFCxac99V/88Sb/FjTm1GjRrVp08ZsvP322wcMGPDf//3fu3btUlZRVo+dO1kLvieE+fn5//u//2s01tXVWY3GMGOCan7IwvkArPHKw9iR9jGxh2F3gXRKxdXFRnGObYm3ayaZAFLrPOWxeL8x85rJarSSmr20HJscxcZ4D63yh1XwFlcXGx3Ejgm4L7FRfFhWVnb55Zc77Cj2s4ixR2vatGmTcWmMu5TaAQAAkHzOs0SrLpBw8mNf/aKLLjK2af8AwgXBJmkOYsfU1tZecO6tDSNGjLjqqqs2btyoDBP3pUzelM0mXD32MOwukE6puLrYKD5M2M4kE0Bqnac8Fu83sfkrYaOPjHnB18sfZpVdXF1sdBA7xr4v54xvFdEN5331oQ9xpPjQfAegw45iOfS2P0dtBQAASD7nWaK17H7yc8G5+dh3vvOdkpKSmpoae6O5+gVJnhDOnTt348aNxi4uOFebcNhs7LoWpUtcXZxPisTV3TeKDxO2n2WSCSClzlMeO99v3Df6yJj2h8btwfoUX+zq1kJFRYVVRHdgjO/bt69Z/7ZaHDZrXzbukefZKO/HW7Jkybe//e14z8L+0H6oyhg74+5o3RRjzZgxw+jdtGmT2gEAAJBkzrPE2AlVvMnPSy+9ZP9eiRdffNGYTQ2P+QrMs6mbEHbr1u3TTz9VGuNtX+kStynOJ0Xi6u4bxYcmJpkAIus85bHz/ca50bijGO2PnmNlPYeMaY3fs2eP8bDZOebqTZo0cSiNWyONvbj5GOHZmF2LmxUb//SnP533Vb3fWLj++uvP2o7cvLWYI5cvX260GF29e/eOfVL2Q1UOxs6hy3D48GFj+7/73e/UDgAAgCQTZ4nmtMc+9xMnP/ZpXteuXa3vlTB7y8vLjcHGn83KyGRPCOPNXb/5zW/edtttZmPsAVjEuZ94qOJ8UiSeUvE4xUaTMse2thz7FCxMMgGk0HnKY/F+E5vCxEZ7GbikpMRsFFOzMt6sgrtf3Rp50UUXiUcS61vf+pYx/oMPPjAfipt13ygewDXXXGMd/3kxT8o+Mt4xz5o167z4NWzToEGDjNVPnDihdgAAACSTOEu0Zj7W5E2c/ChvFrBWt6Y9w4cPv/DCC5WRyZ4QxttXx44dYxtjty/O/cRDFRtFzqc0YaPSZf3eJ5NMAFF2nvI49n6TGcxvM1J+zNkNpQ7t8EtOwXXp0mXo0KFq69cZdxfjMP72t7+pHQAAAMmUAbNENxNC56qBP2HOJ0VMMgFEWbZUJXxTSvva71JeNTY2tmjRolu3bmoHAABAMmXJLDEZVYmozSdFTDIBpApVifRTVlb2jW98Y9u2bWoHAABA0jBLzHhMMgGkBFWJ9PPFF1+cf/75o0aNUjsAAACShllixmOSCSAl1KrE8uXLjfvNn/70p38gwjp16vTd7353xYoVageAr7zzzjsnT55UUhwAwDdmidnA/SST+ywAXdSqhPnDRQCQAb71rW9Nnz69sbFRSXQAAB+YJULBfRaAFmpVYsWKFUaKefTRR1cjwl5//XXjGrkpYwNZa9WqVf379zcSmjFhUhIdAMAHZonZwP0kk/ssAF3UqsQ/+MQggAzy61//+tvf/jZvMQWA4JglIhb3WQDBUZUAkMlWrlxp5LR33nlH7QAAeMQsEbG4zwIIjqoEgExGTgMAXcioiEVUAAiOqgSATEZOAwBdyKiIRVQACI6qBIBMRk4DAF3IqIhFVAAIjqoEgExGTgMAXcioiEVUAAiOqgSATEZOAwBdyKiIRVQACI6qBIBMRk4DAF3IqIhFVAAIjqoEgExGTgMAXcioiEVUAAiOqgSATEZOAwBdyKiIRVQACI6qBIBMRk4DAF3IqIhFVAAIjqoEzh4+fPjhhx+eNGnSRCTBmjVr1DOOEAXJacZapaWl6hVFNjES47Rp02pra9XgSBqiDuHwF9tBMqpGvEzi8XdZA4pIVABIa1QlcHbq1Km7d++uRXIsXrx4wYIF6klHWHzntMrKyoULF6qXE9nHSI/Tp09X4yM5iDqEyUds+86oGvEycebjsgYUhagAkO6oSuDsxIkT1XsatCorK1NPOsLiO6dNnjxZvZDIVkYwqPGRHEQdQuY1tn1nVI14mSTk9bIGFIWoAJDuqEqAqkTSTZs2TT3pCIvvnMbEF5bQpvhEHULmNbZ9Z1SNeJkk5PWyBhSFqACQ7qhKgKpE0lGVSCHfOY2JLyyhTfGJOoTMa2z7zqga8TJJyOtlDSgKUQEg3VGVAFWJpKMqkUK+cxoTX1hCm+ITdQiZ19j2nVE14mWSkNfLGlAUogJAuqMqAaoSSUdVIoV85zQmvrCENsUn6hAyr7HtO6NqxMskIa+XNaAoRAWAdEdVAlQlko6qRAr5zmlMfGEJbYpP1CFkXmPbd0bViJdJQl4va0BRiAoA6Y6qBKhKJB1ViRTyndOY+MIS2hSfqEPIvMa274yqES+ThLxe1oCiEBUA0h1VCVCVSDqqEinkO6cx8YUltCk+UYeQeY1t3xlVI14mCXm9rAFFISoApDuqEqAqkXRUJVLId05j4gtLaFN8og4h8xrbvjOqRrxMEvJ6WQOKQlQASHdUJUBVIumoSqSQ75zGxBeW0Kb4RB1C5jW2fWdUjXiZJOT1sgYUhagAkO6oSoCqRNJRlUgh3zmNiS8soU3xiTqEzGts+86oGvEyScjrZQ0oClEBIN1RlUAqqxI5OTlqU+gSHkOvXr2aNm2qtnpBVSKFfOe0cCa+waMryhK+uAKKd/a07ze0KX44UeeJ9pPpQ1KPIXkbT8aWtW/Ta2z7zqgaJe9lkvD0xss5UeP1sgYUhagAkO6oSiBxVcK4B+d8xff9WLzZd+3aVW0KwL4LcXciNyPdjHFAVSKFfOc0NxNf66WxcuVKtc+1gNEVXPIOwHnLe/fuNc+ewVhWu90Rd6E3sdSGOMV3E3Vazpt74skUT3vyJNyddU7cnBBlawk37oa4EfHUuZeMbcbyGtu+M6pGbl4m9rMnnkmRm5G6xiSV18saUBSiAkC6oyqBxFUJf3d3he8V7Vq0aKE22fg7Tjcj3YxxQFUihXznNE8T3+LiYjd/DokCRldwyTsA5y37e8EqfK9o55xYakOc4nuKOmU5TCHvN+HurAEJR9bGjHGzSkJaNqJIxjZjeY1t3xlVo+S9TNyM1DUmqbxe1oCiEBUA0h1VCfisSoj/XyeOFB/WSu+EzDn3f87KNu07ys3NtY9XNGnSJD8/31gw/jWWzUbxOK1Gc3dmo7WgLMc+3LJli7VNY9neJaIqkUK+c5rvia8YHjlSbFtd9odixNrHWMvWOzWsPZrjAx6AKN5RxW5TfHGJ7L3W/wDbdzRjxozYxoQHrz2x1IY4xfcaddZ5Ey+6eDLtq1vLOdIpqpVOpsm+EeWh0qUQL6W4d/eBVGs7D9aCfRVl9diHsXsXz6c40uqyP6yVTp14OcQTYvK6TefzGY/X2PadUTVy8zIJOB8QA8BkjXEgjhH3bh9pLYt7z0nmZQ0oClEBIN1RlYC3qoTznE9sLCkpMZbPP/98419j2RpgH2My5lvFxcVKl7hNkbF6v379jIW+fftaUzdxdeuPEGN3ziMTPnQ+JBNViRTyndPcTHzFSBAb7bGt/A3sJrqcG5UFcbD44nJ4bSoKCwutZev4xW2KLy6R+F50+8kZPXr00qVLa+Ps3aScPbFRPE7xLMUT2hTfTdSJ5018OuLJFEeKp0h8KMaMuE2ReCnFvbsPJHHvYqN48OLexdXFkeI2lTEm8XKIJ8T9Nt0fZzxeY9t3RtXIzcukaVjzAZE4RrzW4o7ExqRe1oCiEBUA0h1VCSSuSjT96r9kmzRp4uNWKj4UG8XVxUaR2WsEcMuWLZ1Xd9+Y8KHzIZmoSqSQ75zmZuIrRoL7xoQPnVePt+A8WFmOfZiQ8zbFRpH5P4fKeXZepTZmgDjeYYyP46wNcYrvJuoSnjfxOVoSjlSqHgk3ojwUx4vEvTs3isSRYmPCh86ri43iQ7FRHGPnZrzDGDfHGctrbPvOqBq5eZmYTzyE+YAo4RjnHSVsFEuTdl4va0BRiAoA6Y6qBBJXJax7YUFBwcUXX6w02pfFRvGh2Ciubr/7Ot+JzVWMKUjPnj2dD8l9o/jQKtOY7F0iqhIp5DunuZ/4KstieIgjEz50Xj3eQsADELVo0cLaoPN/J4qNDozzbAxr3769+VBcRdy7SRyvNIqH5D6x1IY4xXcTdSblvCW86BbxbIgjTWKX0ihuUyReSnF1sVFkf+7O20z40FpOeD4dNhKvURwjnhCTON5hm26OM5bX2PadUTVy8zIxn7jv+YAYAMoYB+IY8VrbR1rL4t7tIxPyelkDikJUAEh3VCXgoSphX3bfKD4UG8XV9+zZ06RJE/Pe7PxZSnH1gI1uHiZEVSKFfOc09xNfZVkMD3FkwofOm4q34LyWshz7UCSu7r5RZK8FiKtbHLaZcLzy0Fp2n1hqQ5ziu4k6f+dNbHRe3SR2iY0mh65aF3t3bhSJI8XGhA/F1S3iSPGh2JhwjNfxykPx4MWN2HmNbd8ZVSM3LxPxJPhrVDh0WcQx4o7snPcuNsbj9bIGFIWoAJDuqEogKVWJ2E8CizdUpVHcpv2PB+cvpRNXFxudP0ea8ODth2H/pGg8VCVSyHdO8zTxLbb9BocYHk2Dfa+E/WvSYiNWWRAPQNys+FDk/JKxL4sjRc6r19o+e++wTfHgHZ6gtew+sdSGOMX3FHX2ZfGiiyfTWiXepVSIXUqjGJ8i8VI6P6PYi64QVxefptIV+zB277UBXkRKo3g5HJ6mm22KhyQ2xuM1tn1nVI18v0zERvESiAFgSnhKa+OMEXckvnbEvYvbjMfrZQ0oClEBIN1RlYDPqoT4bdLid1nbu6wv7hK/zcu+irXs/o3W4uruj1NsFI9T3KYDqhIp5DunuZn4Nv3qfbZGzFiNYniYY5RGf9GVEzPDVhbELVhjlOXamNemSHx1iNsUR4rE47Q3xv5OQcLXpthorWJfdp9YakOc4ruJuoTnTWx0PpnWgp14Mk0OMSNuypJw79ayOFLkdXXl4J1Xz/H1IhJPnfvLYe9yv003xxnLa2z7zqgauXmZiCdBPF3iJRBHipdAZN0aTGYFStyRndUo7l1cJR6vlzWgKEQFgHRHVQKJqxKpZb8Te7orRwdViRTyndPcTHzd0xi6GjeVzTwlltCm+HqjLiUSnkxEitfY9p1RNcqAl4lI42vH62UNKApRASDdUZVA1KsS9v80SPhG62iiKpFCvnOa3olvwOmm+F9nCMJTYgltiq836kJDfKYvr7HtO6NqlKYvE1GSXjteL2tAUYgKAOmOqgSiXpXIAFQlUsh3TsukiS8CCm2KT9QhZF5j23dG1YiXSUJeL2tAUYgKAOmOqgSoSiQdVYkU8p3TmPjCEtoUn6hDyLzGtu+MqhEvk4S8XtaAohAVANIdVQlQlUg6qhIp5DunMfGFJbQpPlGHkHmNbd8ZVSNeJgl5vawBRSEqAKQ7qhKgKpF0VCVSyHdOY+ILS2hTfKIOIfMa274zqka8TBLyelkDikJUAEh3VCVAVSLpqEqkkO+cxsQXltCm+EQdQuY1tn1nVI14mSTk9bIGFIWoAJDuqEqAqkTSUZVIId85jYkvLKFN8Yk6hMxrbPvOqBrxMknI62UNKApRASDdUZUAVYmkmzJlinrSERbfOY2JLyyhTfGJOoTMa2z7zqga8TJJyOtlDSgKUQEg3VGVAFWJ5Dpw4MCPfvSjm266aenSpSdPnlTPPpLMd04rLS1VryWyVWhTfKIOIfMa274zqka8TBLyelkDikJUAEh3VCVwdurUqbt371bvadBk8eLF8+fPX7BgwYABA1q2bDl06NCXX365vr5evQxIDt857bnnnlu4cKF6OZF9jPQ4ffp0NT6Sg6hDmHzEtu+MqhEvE2c+LmtAUYgKAOmOqgTOHj58+OGHH540adLEcI0ZM+buu+9WWzPOmjVrrFNdVVU1b968a6+99qKLLho5cuSGDRts1wFJESSnGWuVlpaqVxTZpKysbNq0acZEXw2OpCHqEA5/sR0ko2oUtZdJcXGx2pQi/i5rQBGJCgBpjaoEUmDTpk133XWX8Zf5F198ofZlh3379j3++ONdunTp1KnTo48+unfvXnUENCGnAYAuZNRYR44cadmypfGv2pE1iAoAwVGVQHhOnjxZUVHRs2fPwsLC3NxcvgPy7LkCzf3339+qVatf/epXlZWVdXV16ggEQ04DAF3IqLEWL17crFkz41+1I2sQFQCCoyqBMGzduvXBBx80/vYuKSkxouv9998vKCg4duyYOi5bnTp1avny5cXFxa1btx4zZoxxutQR8IucBgC6kFFjDRkyZODAgca/akfWICoABEdVAklUX1+/bNmyfv36tW3bdvLkydbnNa6++ur58+d/fSz+n927d5eVlRmn65prrqmsrDx16pQ6Ah6R0wBAFzKqwvz4hjG9yeYPcRAVAIKjKoGkMO7QkydPNv667tev37Jly+w/OfHiiy/26NHjzJkztuH4moaGhpUrVw4cODA3N7e0tDRrv31DC3IaAOhCRlUsXrzYfJeE8W/WfoiDqAAQHFUJaGYET0lJSatWrR588MHYTyLU19d37NjxrbfeUtoh+uyzz/74xz8aJ/PWW2/lBzv8IacBgC5kVIVVjLDKE1mIqAAQHFUJ6FFdXV1eXl5YWNizZ8+KioqTJ0+qI86ZNWvW4MGD1VY4Onbs2Jw5czp16tSrV69FixbZ33iChMhpAKALGdXO/usb2fxLHEQFgOCoSkCDAwcOtGrV6rrrrtu0aZPaZ1NdXZ2bm/vpp5+qHXChsbHx1VdfHTBgQNu2bcvLy48ePaqOgIScBgC6kFHtlPdHZO2HOIgKAMFRlYAexh/Mxl/LO3fuVDtsRp+jtsKjzZs3Dx06NDc3t6ys7NChQ2o3vo6cBgC6kFHtlDJE1n6Ig6gAEBxVCWjz7LPPduzYMd7fyZ9++qnxh3R1dbXaAV8+//zzUaNG/fSnP33ggQd27dqlduMr5DQA0IWMaon9yEZsS5YgKgAER1UCOk2dOrV3797Hjx9XO86eHTx48KxZs9RWBHPw4MFJkya1bt36D3/4A7UJETkNAHQho1rEd0Zk54c4iAoAwVGVgGbGn8cDBgw4ffq0vfGtt97q2LEjX9OYJLW1tQ8//HDr1q1Hjhy5d+9etTu7kdMAQBcyqkUsQIilioxHVAAIjqoENHv11VcvvPDCYcOGWS1nzpzp0aPHiy++aBsF/Q4fPlxWVtaqVatRo0bt27dP7c5W5DQA0IWMaor3YY147ZmNqAAQHFUJ6LRw4cI2bdqsW7eud+/eU6dONRvnz59/9dVXf30gkqWqqmrChAkXXXTRuHHjampq1O7sQ04DAF3IqCaH90SI76HIbEQFgOCoSkCbJ598skOHDuYPfx46dKhjx47PPvvssWPHCgoKPvjgA3U0kunAgQMjR47My8v785//nOUfnCGnAYAuZFSTQ+nBoWCRqYgKAMFRlYAGjY2NY8aM6d69u/2DAzt37mzbtm1xcfGdd95pG4vwbNu2bfDgwR07dly6dKnalzXIaQCgCxn1bKKPaTj3ZiSiAkBwVCUQVH19/R133HHttdfW1tYqXe+//37r1q2/+OILpR1hWrdu3RVXXFFUVLRhwwa1LwuQ0wBAFzLqWRfvhnB4J0VGIioABEdVAoEcO3bs17/+9c0331xXV6f2nXPgwAG1CaFrbGysrKxs3779XXfddfDgQbU7o5HTAEAXMupZF0WHhGWLDENUAAiOqgT8M/6+7dWr13333XfmzBm1D9Fz7Nix0tLS3NzcOXPmKD/dmsHIaQCgCxn1yJEjzZs3b5aIMSZ7PsRBVAAIjqoEfNq5c2dhYeEjjzyidiDatm3bdv31119++eXvvvuu2peJyGkAoAsZVdSsWTO1KZsQFQCCoyoBPz788MOCgoKKigq1A2liyZIl7dq1GzFiRMb/eig5DQB0IaOKqEoQFQACoioBz9asWZOXl7dq1Sq1A2nl6NGjDz74YEFBQWZfSnIaAOhCRhVRlSAqAAREVQLeLFmyJD8//5///KfagfRkXMpOnTrdcccd1dXVal9GIKcBgC5kVBFVCaICQEBUJeDBU0891b59+08++UTtQDo7efLk2LFj27Ztu3z5crUv/ZHTAEAXMqqIqgRRASAgqhJwq7S0tEuXLnv37lU7kBHee+894/r+5je/OXz4sNqXzshpAKALGVVEVYKoABAQVQkk1tDQcNddd/Xt2zfD/l6F4tSpU2PHjr344ovffvtttS9tkdMAQBcyqoiqBFEBICCqEkjg+PHjN9xww6BBg06cOKH2IRMZL/+CgoIpU6Y0NDSofWmInAYAupBRRVQliAoAAVGVgJOqqqo+ffqMGDHi9OnTah8y14EDBwYOHHjllVfu3r1b7Us35DQA0IWMKqIqQVQACIiqBOLatWvXZZddVlZWpnYgCzQ2Ns6aNSs3NzfdvwKTnAYAupBRRVQliAoAAVGVgOyjjz5q167dX/7yF7UD2eTDDz/s2LHjuHHj0vfNMuQ0ANCFjCqiKkFUAAiIqgQE69aty8vLW7FihdqB7FNTUzNgwID+/fun6XedktMAQBcyqoiqBFEBICCqElAtW7YsPz8/k36FAQGdPn26tLT0kksu2bx5s9oXeeQ0ANCFjCqiKkFUAAiIqgS+Zvbs2e3atfv444/VDmS9F154IS8vb+nSpWpHtJHTAEAXMqqIqgRRASAgqhL4P5MmTercuXMG/OwCkmTz5s2XXnrp5MmT1Y4II6cBgC5kVBFVCaICQEBUJfD/NDQ0DBs2rG/fvtXV1WofYFNVVVVUVHTXXXcZMaP2RRI5DQB0IaOKqEoQFQACoiqBsydOnLjhhhsGDRpkLKh9QAwjTgYPHjxw4MBjx46pfdFDTgMAXcioIqoSRAWAgKhKZLuqqqo+ffqMGDEifX/6EeEzouWee+654oorDhw4oPZFDDkNAHQho4qoShAVAAKiKpHVdu3addlll5WVlakdgAvTp0/v2LHj9u3b1Y4oIacBgC5kVBFVCaICQEBUJbLX5s2b27VrN3fuXLUDcG3+/PkFBQWffPKJ2hEZ5DQA0IWMKqIqQVQACIiqRJZat25dXl7eihUr1A7Ao6VLl7Zt2zayhQlyGgDoQkYVUZUgKgAERFUiGy1btiwvL+/tt99WOwBfolyYIKcBgC5kVBFVCaICQEBUJbLOnDlz2rVr9/HHH6sdQACRLUyQ0wBAFzKqiKoEUQEgIKoS2WXSpEmdO3fevXu32gEEFs3CBDkNAHQho4qoShAVAAKiKpEtGhoahg0bVlRUVF1drfYBmrzwwgsFBQU7d+5UO1KHnAYAupBRRVQliAoAAVGVyAonTpy48cYbBw0aZCyofYBWFRUVhYWFVVVVakeKkNMAQBcyqoiqBFEBICCqEpnP+PuwqKho+PDhDQ0Nah+QBFOmTOnTp09ESmDkNADQhYwqoipBVAAIiKpEhtu1a9dll11WVlamdgDJNGzYsCFDhpw+fVrtCB05DQB0IaOKqEoQFQACoiqRyTZv3tyuXbu5c+eqHUCSNTQ0DBgw4N5771U7QkdOAwBdyKgiqhJEBYCAqEpkrHXr1uXl5S1fvlztAEJx7Nixnj17PvHEE2pHuMhpAKALGVVEVYKoABAQVYnMtGzZsry8vLffflvtAEL05ZdfFhQUrF69Wu0IETkNAHQho4qoShAVAAKiKpGB5syZ065du82bN6sdQOjeeeedNm3a7N27V+0ICzkNAHQho4qoShAVAAKiKpFpJk2a1Llz5927d6sdQIrMnDmzT58+9fX1akcoyGkAoAsZVURVgqgAEBBViczR0NAwfPjwoqKi6upqtQ9IqZtvvnnUqFFqayjIaQCgCxlVRFWCqAAQEFWJDHHixIlBgwbdeOONxoLaB6TakSNHOnXqVFlZqXYkHzkNAHQho4qoShAVAAKiKpEJqqur+/btO2zYsIaGBrUPiIYtW7bk5ubu2LFD7UgychoA6EJGFVGVICoABERVIu3t2bOnS5cuEydOVDuAiHn66aevvvrqM2fOqB3JRE4DAF3IqCKqEkQFgICoSqS3LVu2tG/f3vhjT+0AoufMmTPXXHPNU089pXYkEzkNAHQho4qoShAVAAKiKpHG1q9fn5+fv3TpUrUDiKqdO3eG/DkOchoA6EJGFVGVICoABERVIl2tWrUqLy/vrbfeUjuAaAv5cxzkNADQhYwqoipBVAAIiKpEWvrb3/5WUFDw73//W+0AIs/8HEdoHzsipwGALmRUEVUJogJAQFQl0s+0adMKCws/++wztQNIEzt27GjduvXevXvVjiQgpwGALroyqrGF0tLSiYiYSZMmGZPM2tpa9YI50hUVALIZVYl0cvr06XvvvbdXr14HDx5U+4C0MnXq1KFDh6qtSUBOAwBdtGTUysrKhQsX1iKSdu/ePX36dPWaOdISFQCyHFWJtFFXV3fzzTf379//2LFjah+Qbk6cONG+fft3331X7dCNnAYAumjJqJMnT1b/FEaUGBdIvWaOtEQFgCxHVSI9GDeJa6655o477qivr1f7gPS0ePHiPn36NDY2qh1akdMAQBctGZWqRMRRlQAQPqoSaWDfvn2/+MUv/vjHPyb77zcgTEY8X3HFFS+++KLaoRU5DQB00ZJRqUpEHFUJAOGjKhF127Zt69Chw4wZM9QOIP29/PLLPXv2VFu1IqcBgC5aMipViYijKgEgfFQlIu29995r06bNokWL1A4gIzQ2Nvbo0eOVV15RO/QhpwGALloyKlWJiKMqASB8eqoSzz333IQJEyZDq9LS0pYtW95+++1qRyYqLy8P+SszTp06NXPmTPU44MWUKVMWL16snlmPVqxYUVRUpLbq4y+nWUhuWS781AREWcCMappMVSLaJlOVABA6DVUJYzC/8JQk+/fvV5sy1NatW++7775Tp06p4ZUcdXV1I0eONHaqHgc8WrRo0Zo1a9Tz60VjY2PHjh03bdqkdmjiI6dZSG4IOTUBERcko1qoSkQcVQkA4dNQlSgtLa2pqVFTGuCRMft/6qmn1PBKjvLyckoSWhiv/bKyMvX8evTkk08OHz5cbdXER06zkNxQG25qAiIuSEa1UJWIOKoSAMKnoSoxceJENZ8BvkydOlUNr+RgSqSR1+lLrEOHDv30pz81NqV26OAjp1lIbjCFlpqAiAuSUS3cgiPO621dS1QAyHJUJRAh06ZNU8MrOZgSaeR1+iIaOnTo3Llz1VYdfOQ0C8kNptBSExBxQTKqhVtwxHm9rWuJCgBZjqoEIiS0qT9TIo28Tl9Er7zyyjXXXKO26uAjp1lIbjCFlpqAiAuSUS3cgiPO621dS1QAyHJUJRAhoU39mRJp5HX6Ijp16tRPf/rT/fv3qx2B+chpFpIbTKGlJiDigmRUC7fgiPN6W9cSFQCyHFUJREhoU3+mRBp5nb7EM3To0GeeeUZtDcxHTrOQ3GAKLTUBERcko1rc3IKbNm2ac87KlSvVPokxUm1ybe/evea+jAW1LxWCPBctvN7WtUQFgCxHVQIREtrU382UCC55nb7Es2LFiuLiYrU1MB85zUJygym01AREXJCManFzC7b+MjfuC26KBUH+krfWDbIRjVJ+GF5v61qiAkCWoyqBCAlt6u9mSgSXvE5f4qmurm7RokVDQ4PaEYyPnGYhucEUWmoCIi5IRrW4uQXb/zK3lq03NcS+r0H5S95hZKyuXbsqC/bVZ8yY4dC4ZcsWq9FYjh1p7V1sFOVIVQlxdftIa1k8pJxz7zpRVo/H621dS1QAyHJUJRAhoU393UyJ4JLX6YuDHj16bNy4UW0NxkdOs5DcYAotNQERFySjWtzcgsW/twsLC63G3Nxcc6GkpMQYcP755xv/GssOI0XijuyrjB49eunSpfEaxdXtjdaRiI0i+0iL+IwS7t1abtq0aXFxcewAkdfbupaoAJDlqEogQnxM/Y8ePao2ueBmSgSXvE5fHIwZM+aJJ55QW4PxkdMsJDeYfKQmICMFyagWN7dg8U9rO6VRHGNy6KqNsyNxlYSN1rL1ngs7sVEk7shOPE73jQmPxOttXUtUAMhyVCUQIT6m/s2bNx8yZMiiRYs8lSfcTIngktfpi4PKysrf/OY3amswPnKaheQGk4/UBGSkIBnV4uYWLP5p3aJFi5yvNG3a1BpgH2NyGKmwvlbTPlLZmkOjfXVrgPhpC7FRZG3HTnxG9pHWsnhI9pEJeb2ta4kKAFmOqgQixMfUv1mzZosWLRoyZEjLli3dlyfcTIngktfpi4MtW7ZcdtllamswPnKaheQGk4/UBGSkIBnV4uYWLP69LTYmfOj8B7k4UlzFfaNd+/bt1aY4jRZxm+Jx2vk4+Hi83ta1RAWALEdVwj+z7G19iBHB+Zj6N2vWzFw4evSo+/KEmymRyNN93YdkbD/hNnv16uX8X0nOvE5fHNTX11944YUnT55UOwLwkdMs4SS3hBfIh2Rs06tUHUMy9usjNQEZKUhGtbi5BVsvZPtvcFjfp2A0Or9XwmGkQvxrX/wKiYSN1lc/iN8BITaKxCQmPiP7+y+sRvGQxG3G4/W2riUqAGS5MKoSYsZPBvEbjxwEPJiAq7vh/v1+ERHwnPiY+ltVCYub8oSbKZF48gM+wYSct2/vdR5p52akmzHxeJ2+OOvWrdu///1vtTUAHznNEk5yEz/i63trJnGbIXN+Cs69QSTjuftITUBGCpJRLW5uwdbHEFauXGk1Wvdl8+ckbMPV/yhyGKmw91rL9gmA829wiFMF940i5SMYZvkj4TOyGsUdiavE4/W2riUqAGS5jKpKmNzvwv1IUcDV3Qj51AUX8CB9TP1jqxIWh/KEmymRePIDPsGEnLcvHlJCbka6GROP1+mLsxtuuOHll19WWwPwkdMsKUxuereWUIsWLdSmwJyfgnNvPOJxio3uuVndR2oCMlKQjGpxcwuGV/6SqsjrbV1LVADIcimrSoil3OC/sVwbk5cdVldGet27srr4jOyNzr9uLcqx7UL8GW1rR1Zl3dq42ZUjHb+4BXGkeKjiSKvL/lDckQMfU3+HqoQltjwxfvx4dd8x7M/FOvnicxefpjhSPJ/W6vH+A8TSpEmT/Px8Y8H411g2G8W9i9u0b1zZkfJQPM54vE5fnN19993z5s1TWwPwkdMsCZOb+yuSI8VDbfyPz+S4eCm536Y40r5N57cTu9+7GHgisVfckXicYmNtEp67yUdqAjJSkIxqoSqhi5gzg/N6W9cSFQCyXMqqEvZG8WNv1nJTL7+xXBszRlxd/KyH+72Lq4ufGBQ/hSjuSCT2iqvHW7Afv/MPXIvP1P1I8ZzYV3f+dW5TM1/UiIxv3759/fv3N1Zp3rz57Nmz1d1/nfg+cPG5i5deHCmeT/HDoiKjt1+/fsZC3759rZHutymOTPhQ6YrldfrizPjzT+8GfeQ0S8Lk5v6KiPEgPkz4UvKxTXGkuE2R+wgXA08k7lE8JPeN4kPxOB1WF1GVAExBMqqFqkTEeb0La4kKAFkuZVUJ8U8+caS9UVxL4TBDdehSHrrZu8NcVlzdIu5IJPaKq8dbcB6ssVF86OZ62fmY+rupSvh7r4T5XxDK5MnhuSuN9l77Wy2sRnGkuE2L2Wu8Qo0n4ry6+8aED50Pqdb79MXZ3Llz77vvPrU1AB85zeIyufm+IuJDsVFc3d7onJ0Sri4eg8h5dbFRJPaKq7tvTPjQzeoiH6kJyEhBMqqFqkTEeb2ta4kKAFkuZVUJ8V1nTQP/xnJtzHj7Q4euWu97V7oS/pS0RdyRSOy1N1rL8RacBydsFA9VHCk+FK+yAx9Tf4eqRGwxwtP3SpiMkcbBWz/iJT73gJfePlJcy2L2Gk+nZ8+ezqu7bxQfiscZj9fpi7P58+cPGzZMbQ3AR06zuExuvq+I+FBsFFcXVzS5Wd1eyHAuICaMcPGQHA6vNk6vuLp4nGKjSdmy+2068JGagIwUJKNa3N+CkRJeb+taogJAlktZVcJO/JPPIjY6cDMldfPQodHksLq1LK4uNorsI13+f7uy4DzYU6NFHCk+tHP+dW6Tj6l/bFXCoRhhcTMlsv+tIp4Q942WhI3iAIs4MmCjm4fOvE5fnFVWVt5+++1qawA+cprFX3Jz3yg+FBvF1cUVTW5W37NnT5MmTXLOcS4aiqu7bxSJveLq4nGKjSZly+636cBHagIyUpCManFzC7YYr9BevXqprWFR8okWQbZpnAo3KSsgr7d1LVEBIMulrCohflA5+G8s18aMF/cuPvS693ir2z9QLX6vhLgjkXjwzo3KQlPX3yshNoqHKo4UH4pX2YGPqb9VlXBTjLC4mRKJT1NsFC+9cipM4vkUVxeJexcbxW1avbE7Uo5WPM54vE5fnL344oslJSVqawA+cprFX3Jz3yg+FBvF1cUVTW5Wt/9l7vzydA4n+7I4UiQevLhN8TjFRpOyZffbdOAjNQEZKUhGtbi5BVuUV7T9rXzOSUYL8b1UyiF5JW7TvYB7d8PrbV1LVADIcmFUJcS38btvzHGdf91/S5zJ3F3sr1u73Lu4tZyvf/m8fZvOv24tEkeKjTlf7VFZyEn0/fOxW7Avux9pcnNKHfiY+jdr1sx9McLiZkokHrz9+VrL1sh4P3hhEbcpri6y91rL7rcpNoqvGnGb8XidvjhbunTprbfeqrYG4COnWRImN+s02pfFsyeOFE++ydyI8xWxb9MiblPcu/tPMYiRI25THClSPiVkVmzFpykep9iYjOdu8pGagIwUJKNa3NyCTYcPH/7FL35hbxFf0SFL1X5NblJWQF5v61qiAkCWC6MqgRRK7b3TKx9T/+bNm7svRljcT4mQkNfpi7Pnn3/+zjvvVFsD8JHTLJmd3KIwuXdDPE6x0T2vq/tITUBGCpJRLe5vwbEvT/HFK/6adY7r/5URG2ulXxo25Xz9qMTVc6S910rbFA9e3KYlJ+a06OX1tq4lKgBkOaoSGS7Zty69fEz9PRUjLO6nREjI6/TF2bx58+655x61NQAfOc2S2cnNPut18ymGVBGPU2x0z+vqPlITkJGCZFSL+1twTswcxt7i/H1b/j7BqnxoUTkA92/Isu9d2YjDQzeHVBuzBe283ta1RAWALEdVAhES2tTf/ZQICXmdvjh74oknxo0bp7YG4COnWUhuMIWWmoCIC5JRLe5vwbF/flsf/mrSpIn7WoNzo8NnImIPILZR3Ka9Udm+m9UdDqk2Zgvaeb2ta4kKAFmOqgQiJLSpv/spERLyOn1xNmbMmFmzZqmtAfjIaRaSG0yhpSYg4oJkVIv7W3Dsn99WS0FBwcUXX2wuK99To4y0L4uNDh+XsI+P1yhuU1zRpHSJB+9wSLUxW9DO621dS1QAyHJUJRAhoU393U+JkJDX6YuzW2+9dcmSJWprAD5ymoXkBlNoqQmIuCAZ1eL+Fhz757e9xVqOHaY0iiPFtZRfMRfHKI3iNsUVTQ6ri2J/WD3hKgF5va1riQoAWY6qBCIktKm/+ykREvI6fXF25ZVXvvPOO2prAD5ymoXkBlNoqQmIuCAZ1eL+FuzyNzjEX7N2/70SDr9iLv7971BW8FGVEA/e4ZCcP9yhhdfbupaoAJDlqEogQkKb+rufEiEhr9MXZ61atdq/f7/aGoCPnGYhucEUWmoCIi5IRrV4ugW7KQGIn3fIkX4FQxwpNopfbGkfr+uXm8XVxUZTjrRlvbze1rVEBYAsR1UCERLa1N/TlAjOvE5fHBw4cOCiiy5SW4PxkdMsJDeYQktNQMQFyagWT7dg42/yXr16qa0uhPDXe/iMUxH7NRPaeb2ta4kKAFmOqgQiZOrUqWp4JYenKRGceZ2+OFi7du1VV12ltgbjI6dZSG4whZaagIgLklEt4dyCM7IqEQ6vt3UtUQEgy2moSpSWltbU1KgpDfBo69atTz31lBpeyVFeXm7sTj0CeGe89svKytTz69esWbNGjRqltgbjI6dZSG6oDTc1AREXJKNawqlKwDeqEgDCp6EqYQxeuHChmtIQlgMHDqhNaciY9993332nTp1Swys56urqRo4cSWEiuEWLFq1Zs0Y9v37dcsstlZWVamswPnKaheSGkFMTEHFBMqqFqkTEUZUAED4NVQmD8ZfJZDhq1qyZ2qRDaWnpT37yk6uuumr8+PFqX1opLy+vr69XAyuZjD8zZs6cqR4HvDDC7/nnn1fPbABt27bdtWuX2hqMv5xmIbllufBTExBlATOqaTJViWibTFUCQOj0VCWQULNmzdQmTfbt2zdixIj8/PzZs2cze0b62r59e0FBgdoaGDkNAHTRklGpSkQcVQkA4aMqEZLkVSVMW7ZsKS4uLiwsfOGFF9Q+IB3MnDlz+PDhamtg5DQA0EVLRqUqEXFUJQCEj6pESJJdlTCtXbu2V69eRUVF69evV/uAaLvyyiuXL1+utgZGTgMAXbRkVKoSEUdVAkD4qEqEJJyqhKGxsbGysvKSSy4pKSnZtm2b2g1E0pdffvnDH/7QmAypHYGR0wBAFy0ZlapExFGVABA+qhIhCa0qYaqvr581a1ZeXt4999yzf/9+tRuImHnz5vXv319t1YGcBgC6aMmopaWl6t/BiBKqEgDCR1UiJCFXJUzGrWXChAmtWrWaOnXqsWPH1G4gMvr37//cc8+prTqQ0wBAFy0Z1cj2/OhyZO3evXv69OnqNXOkJSoAZDmqEiFJSVXCtGfPnjvvvLNt27Z//etfGxoa1G4g1Wpqan784x/XJuHjG2fJaQCgj66MamyhtLR0YgYZNGiQ2qTDsGHDHnroIbU1acrKyqZNm+b1dqwrKgBkM6oSIUlhVcL00Ucf/frXv+7cufOqVavUPiCl/vrXv958881qqybkNADQhYwqOn78eMuWLaurq9WOwLZu3XrRRRcNGTJk0aJFR48eVbujgagAEBxViZCkvCphWr16dffu3a+66qqNGzeqfUAqNDY2/vznP09eziGnAYAuZFTRq6++akzzysvL1Q4d5s+f/4Mf/KB///4tW7aMZnmCqAAQHFWJkESkKmE4c+bMggUL2rdvf+utt+7YsUPtBsK1evXqSy+9tLGxUe3QhJwGALqQUUWjR4+++eabCwsLk3Qvu+OOO+6///6jR48uWrRoyJAhUStPEBUAgqMqEZLoVCVMdXV1jz/+eG5u7gMPPFBVVaV2A2G58cYbn3jiCbVVH3IaAOhCRhV16tTpo48+6tmz5+rVq9U+HY4cOdKxY8eVK1eaD6NWniAqAARHVSIkUatKmKqrq8eMGdO6detHH3305MmTajeQZNu3b//JT35y+PBhtUMfchoA6EJGjfX555+3bdu2sbGxoqKipKRE7dbk/fffz8/P37Nnj70xIuUJogJAcFQlQhLNqoRp586dt99+e0FBwXPPPXfmzBm1G0ia0aNHjxkzRm3VipwGALqQUWPNmzfvrrvuMhZOnDjRqlWrvXv3qiM0KS8vv/LKK8UfU0tteYKoABAcVYmQRLkqYdq0adO1117brVu3N954Q+0DkqC2tvaiiy5S/udHO3IaAOhCRo1VUlJSWVlpLj/44INTpkz5er82jY2NxcXFZWVlaoeNWZ4oKioybq8HDx5Uu5ODqAAQHFWJkES/KmF6+eWXu3Tpcv3113/44YdqH6DVpEmT/vCHP6itupHTAEAXMqqivr6+ZcuWhw4dMh9u3bq1oKDAaPz6KG2MHbVr127NmjVqh82RI0c6depkFUpCQFQACI6qREjSpSphOH36dEVFhXFbHTp06K5du9RuQId9+/a1bt3a+Fft0I2cBgC6kFEV69evv+KKK+wt/fr1W7Zsmb1FrzVr1rRr186qgygaGxtLSkoeeOABtSOZiAoAwVGVCEkaVSVMx48ff+SRR1q1ajVu3Liamhq1Gwjm7rvvnjhxotqaBOQ0ANCFjKooO8fesmzZsn79+tlbtDP2WFxcLP4K6RNPPNG3b9/kvVlDRFQACI6qREjSriphOnjw4L333puXlzdz5syQb3LIYFu3bs3Pz6+trVU7koCcBgC6kFEVV1xxxfr16+0txmSpoKDAuM3ZG/VqaGi48sory8vLlfbXX3+9bdu2IbwJUUFUAAiOqkRI0rQqYfr0009LSko6dOhQWVkp1uYBT4xw+vOf/6y2Jgc5DQB0IaPaHTp0qGXLlrH/ZzNlypQHH3xQadRrz549+fn577//vtWyY8eO73//++G8CVFBVAAIjqpESNK6KmH65z//WVRU1LNnz7feekvtA1zbsGFDhw4dTp06pXYkBzkNAHQho9pVVlaWlJSorWfP7t27t1WrVidOnFA7tFq5cmXHjh2PHDly9twbNPr27fvHP/6xc+fOd999d11dnTo6mYgKAMFRlQhJBlQlTMuWLSssLCwuLt6yZYvaByRy+vTpXr168d3gAJCOyKh2d91117x589TWc0pKSioqKtRW3e6///477rjDWHjggQeMPTY2Nh47duz222/v0aPHjh071NFJQ1QACI6qREgypipx9lxJfs6cOfn5+SNGjAj/44tIazNnzuzfv7/amkzkNADQhYxqaWxsbNu27eeff652nLN69eqePXuqrbrV1dV17979t7/9badOncw3TZjmzp2bm5v74osv2sYmEVEBIDiqEiHJpKqEybj/lZWVtWrVyvjXfi8E4tm5c6cxT4o3h0sSchoA6EJGtXz00UedOnVSW7/S2NhYWFj43nvvqR26bd261bixxr599YMPPujQocOYMWNiv/ZCO6ICQHBUJUKSeVUJ0759+4YPH56fnz937twQ7nxIa7/61a9C+5JLCzkNAHQho1qefPLJ0aNHq6025eXld911l9qaBFVVVWrTOTU1NYMHDy4qKtq7d6/apxVRASA4qhIhydSqhGnLli0DBw7s1KnT8uXL1T7gnPnz5//yl788c+aM2pFk5DQA0IWMarn++usrKiq2bdu2bt26JUuWzJs3b9q0aSNHjrztttuuu+66yy67rE2bNhdeeGF1dbW6ZrhmzJhhHMnrr7+uduhDVAAIjqpESDK7KmFas2bN5Zdf3rdv3w0bNqh9yG779+/Pz8//+OOP1Y7kI6cBgC5kVNPx48dzcnKMv/Yvu+yy66677rbbbrvnnnu+973vPfPMM0uWLFm3bt22bduMG5+6WooYs7L27dtPmjTp9OnTap8ORAWA4KhKhCQbqhJnz32QcvHixT/72c9uuumm7du3q93IViUlJZMnT1ZbQ0FOAwBdyKgOWrZsWVtbq7ZGQ1VV1cCBA6+++upkfEk5UQEgOKoSIcmSqoTp1KlTM2bMyM3Nve+++w4ePKh2I8vMmTOnd+/eqfraEXIaAOhCRnVw8cUX79mzR22NjMbGxscee6xt27baLx9RASA4qhIhyaqqhOnw4cMPPfRQ69atp0+ffuLECbUb2eGjjz7Ky8v77LPP1I6wkNMAQBcyqoNf/OIXmzdvVlsjZv369e3bty8rK9P4aQ6iAkBwVCVCkoVVCdPnn38+dOjQgoKCiooKjbdApIVjx4516tTphRdeUDtCRE4DAF3IqA6uuuoq429+tTV6Dh06NGDAgGuvvVbXpzmICgDBUZUISdZWJUwffPBBv379fv7zn7/66qtqHzLXnXfeeffdd6ut4SKnAYAuZFQHN9544yuvvKK2RtKZM2ceffTRtm3brl69Wu3zjqgAEBxViZBkeVXC9Nprr3Xt2vW666774IMP1D5knAULFnTr1u3kyZNqR7jIaQCgCxnVwdChQysrK9XWCHv77bfbtWsX/NMcRAWA4KhKhISqhMm48z377LMFBQXGzfvzzz9Xu5EptmzZkpeX95///EftCB05DQB0IaM6uP/++//yl7+ordFmfpoj4G9zEBUAgqMqERKqEnYnTpyYPn1669atH3roocOHD6vdSHNVVVWXXHLJkiVL1I5UIKcBgC5kVAdlZWWPPvqo2hp5jY2Njz/+eJs2bV5//XW1zx2iAkBwVCVCQlUi1qFDh+67777c3Nwnn3zy1KlTajfSU319/bXXXmtMztSOFCGnAYAuZFQHM2fOHDdunNqaJjZs2HDxxRdPmDChoaFB7UuEqAAQHFWJkFCViGf79u0333zzz372s0WLFjU2NqrdSDf33HNPSUlJdC4lOQ0AdCGjOqioqEj5FzwHUV1dPWjQoL59++7Zs0ftc0RUAAiOqkRIqEo427Bhw5VXXnn55ZevWbNG7UP6mDNnTvfu3Y8dO6Z2pA45DQB0IaM6WLFixW9+8xu1Nd2Ul5fn5+e/9NJLakd8RAWA4KhKhISqhBvGHb1Tp04DBgz4+OOP1T5E3po1a9q2bbtr1y61I6XIaQCgCxnVgXET/NWvfqW2pqH33nuvQ4cOY8aMqa+vV/skRAWA4KhKhISqhEvGLXDu3Ln5+fnDhw//4osv1G5E1SeffGJctXfeeUftSDVyGgDoQkZ18K9//atXr15qa3qqra296aabrrjiis8++0zti0FUAAiOqkRIqEp4cuTIkcmTJ7dq1aqsrMxYVrsRMXv37r344ov//ve/qx0RQE4DAF3IqA6MP+AvvfRStTWdzZkzJzc394UXXlA7vo6oABAcVYmQUJXwYd++fSNGjMjPz589e7bLtxEifIcPH+7SpctTTz2ldkQDOQ0AdCGjOqitrW3ZsqXamub+/e9/d+rUaeTIkXV1dWrfV4gKAMFRlQgJVQnfPvnkk+Li4sLCwoTVeoTvxIkTffv2nThxotoRGeQ0ANCFjOrgzJkzP/jBD4x/1Y40d/To0aFDh3bv3n3btm1q3zlEBYDgqEqEhKpEQG+99VavXr2KiorWr1+v9iFFGhoabrzxxuHDh6sdUUJOAwBdyKjOLrroosOHD6utGeHZZ5/Nzc1dsGCB2kFUANCBqkRIqEoE19jYWFlZ2aFDh5KSkk8//VTtRriMyzFs2LAbb7yxoaFB7YsSchoA6EJGdVZYWLhjxw61NVN88sknXbt2/f3vf3/8+HF7O1EBIDiqEiGhKqFLfX19eXl5Xl7eyJEjDxw4oHYjLPfff/9VV1114sQJtSNiyGkAoAsZ1Vnv3r3ff/99tTWDGDf9ESNGdO7cefPmzVYjUQEgOKoSIaEqoVdNTc24ceNatWo1bdo0pWaPEIwZM6aoqOjo0aNqR/SQ0wBAFzKqswEDBmTDyamsrMzNzZ03b575kKgAEBxViZBQlUiGXbt2/e53v2vbtm1FRcXp06fVbiTHuHHjevfuXVtbq3ZEEjkNAHQhozq74447ovkj2dpt3769R48et95665EjR4gKAMFRlQgJVYnk+fDDD6+//vouXbq8/PLLah90Kysru/zyy2tqatSOqCKnAYAuZFRno0aNmjt3rtqaoerq6u67775LL710zpw5RAWAgKhKhISqRLK98cYb3bp1u+aaazZt2qT2QZOpU6d27969urpa7YgwchoA6EJGdTZlypTp06errRlt2bJlLVq0+M53vkNUAAiCqkRIqEqE4MyZM88991y7du1uu+22nTt3qt0I5uGHH+7ateuhQ4fUjmgjpwGALmRUZ3/+85//+Mc/qq2ZbsGCBd/97neLiorS6H2UAKKGqkRIqEqE5uTJk48++mjr1q3HjBmTXv+rH2Vjx47t0aNH2pUkzpLTAEAfMqoz4+/zu+66S23NdGZU3HTTTT/72c82btyodgOAC1QlQkJVImRVVVWjR4/Ozc197LHH6urq1G641tjYeP/99/fp0ydN/w+EnAYAupBRnb388suDBw9WWzOdFRUvvfRSXl7ejBkzjJmDOggAHFGVCAlViZTYsWPHrbfe2r59+wULFpw5c0btRiKnT58eNmzYNddckxY/AioipwGALmRUZxs2bLjyyivV1kxnj4o9e/YYZ+CGG26oqqpSxwFAfFQl9Dty5Ejz5s2bJWKMMUaqKyMJNm7cePXVV3fv3n316tVqX9Y7ePCg2vSVhoaG3/72t/379z9x4oTalz7IaQCgCxnV2X/+858uXbqorZlOiQpj8lBaWtq+ffv169d/bRwAxEdVIimGDBmyePFitdXG6DXGqK1IplWrVnXu3PnXv/71Rx99pPZlqz179uTm5r7//vtqx7mv5xg0aFBJScmpU6fUvrRCTgMAXciozvbv35+fn6+2ZjoxKt544422bds+9thjfJoDgBtUJZIiYdEhYdkCydDQ0PDXv/7VuE3eeeedu3fvVruzz6233jp48GDjhCg/WVJTU3PllVf+/ve/N86YvT0dkdMAQBcyqrNTp0798Ic/VFszXbyo2Ldv39VXXz1w4EA+zQEgIaoSSXHkyJGWLVvG+4CGcy+S7dixY1OnTm3VqtWECRNqa2vV7hjGbVVtyghr16695JJL6urqnn322Y4dO1q/r2E8365du44fPz4z/n+DnAYAupBRE/rRj35kTDPU1ozmEBWnT5+eNGlS+/bt//nPf6p9AGBDVSJZHN4NkfCdFAjB/v3777nnnry8vFmzZtXX16vdXzH+Vm/duvW7776rdqS5hoaGbt26rVq1ynw4derU3r17Hz9+fNu2bT/72c/Ky8u/PjyNkdMAQBcyakLGX+B79uxRWzNawqh444032rRp8/jjj2fG/3YASAaqEsniUHpwKFggZMYf4SUlJZdcckllZaV4szT+XL/qqqvy8/M//vhjtS+dPf300/3797e3/OEPf+jbt6/xTDMsOMlpAKALGTWhHj16ZNvXV7mJii+++MKYTRUXF1dXV6t9AEBVInnifUwjXjtSaP369UVFRb169Vq7dq29/eTJk3l5edu3b1+2bFlBQcFnn31m701fhw4dys3N3bZtm73RiMkLL7xwwIAB9sYMQE4DAF3IqAldd91169atU1szmsuoMH+b4+KLL96wYYPaByDrUZVIIvE9EQ7voUBqvfDCC4WFhcXFxVu2bDFbnnnmmZKSEnO5oqLi0ksv/fLLL/9vhbR19913jx07Vm09V63o3bv31KlT1Y50Rk4DAF3IqAnddNNNK1euVFszmqeoeP3119u0aTNz5ky1A0B2oyqRRGIBQixVICLq6+tnz56dn58/YsSIvXv3FhYW2iv6TzzxRLdu3Q4fPmxbI/188MEHBQUF8d6tc+jQoY4dOz777LNqR9oipwGALmTUhIz5w/z589XWjOY1Koz5VVFRUUlJiZtvHAeQJahKJFHshzViWxBBxgUqKytr1apVnz59lK4JEyYYt9Ljx48r7emisbHROP4FCxaoHTY7d+5s27btq6++qnakJ3IaAOhCRk3ooYcemjVrltqa0XxERX19/ZgxYy655JJ//etfah+ArERVIrmUd0aI755ANPXp0+fFF19UW899/KF///4OP9sRZQsWLCgqKhK/19OydetW4wm2atXK+q3QtEZOAwBdyKgJ/elPf5o8ebLamtF8R8WKFSvy8vLmzZundgDIPlQlkkspQ/DxjXSxYcOGwsLCM2fOqB3nfnz7N+cYC2pftB05cqSgoOCDDz5QO76yevXqG264oU2bNtOnT6+qqlK70xM5DQB0IaMmNGfOnAceeEBtzWhBomLHjh09evS44447jh07pvYByCZUJZLL/pENPr6RRkpKSp555hm19Sv19fX9+/e/++671Y5oGzt2rHjMp06deu65535xjrFgPFRHpDNyGgDoQkZNqLKy8ne/+53amtECRkVdXZ0xOenSpcsnn3yi9gHIGlQlks56fwQf30gX27dvz8vLO3nypNphc/z48aKiogkTJqgdUbVt27bc3FzlQxlVVVXTp09v06bNDTfcsHr1antXxiCnAYAuZNSEXnnllUGDBqmtGU1LVCxatKhDhw7p+71dAAKiKpF0VjGCj2+ki3vvvdfNr2MePny4W7duTzzxhNoRSf3793/66aeth1u3br3nnntatmxp/Gss2wZmGnIaAOhCRk1o/fr1V199tdqa0XRFxYkTJ9QmSWNj4+nTp48dO7Z9+/Y333xz2bJlf/vb3x555JGysrLx48dPOuehhx6a+HXjxo0zuyZMmGCMnDFjRkVFxWuvvfbuu+/u2rXL2KDzV24BSDaqEklnfnDjiy++4OMbaeHo0aM//vGPO3bseMstt0yZMsW423388cfxvtvyyy+/vPTSS40bm9oRMatWrerWrVtDQ8PZDP3yCAfkNADQhYya0ObNm7t37662ZrSkRsXp06eNKfRrr71WXl4+YcKEhx56aPTo0aNGjZo4ceJf/vIXY3qzdu1aY55mzMdqvdi1a5exlrHZJUuWPP3008bWxo8fb2y/tLTUmPv9/e9///e//51hH2gFIo6qRBiGDBkycOBAPr6RLurr64171bJly4w70y233NK1a9cf/vCHxr9ineKzzz4rKCgwGr++jQipq6u75JJL3njjjQz+8ggH5DQA0IWMmtDu3bsvvvhitTWj6Y2KxsbGI0eOvPTSS9OmTZs4cWJpaemsWbNef/11Y7qllhaSo6qq6t133124cOHkyZONvU+aNOn555/fs2cPb6YAkoqqRBgWL17crFkzPr6RvpzrFIbmzZtH9nsZpk+f/pOf/CSzvzzCATkNAHQhoyZk/FnbsmVLtTWjaYkK42/+3bt3z5w5s6yszJi3rFmz5tChQ2rBIEU+/PDDp59+2jiwRx555KOPPqI8ASRDtKoSp06dMvLR5Iwzfvx4469W41+1I80Zf42HXGqJToRMnDjxnnvuueWWW66++urOnTvn5ubm5OQMGzZMHZdqo0ePvvDCCy+//PJ7771X7Ys2XdGV2pwGAJkkChk1OjMBkfG36/e+9z3jX7UjSnTdYU0Bo8L4I3/58uXGGZs9e/auXbvUkkCUHDx4cMGCBZMmTZo/f775qVgAukSoKlFXVzdy5MitW7eqOSAjGKlWbcoIixYtWrNmjXotkyPiEXLo0KFPPvlEbU21tWvXhvamR+20RFcKcxoAZJiUZ9SIzwTSiJY7rClIVBjHMH78+DfffFM9vmjbtGnThAkTVq1apT4fAH5FqCpRXl7ObSbt1NTUlJWVqdcyOYiQbKMlulKY0wAgw6Q8ozIT0EXLHdbkLyoaGxuNq7lw4UL1yNLHihUrHnvssTNnzqjPDYB3EapKTJ48WX25Ix0YF069lslBhGSh4NGVwpwGABkm5RmVmYBGwe+wJn9RYfw9v3HjRvWY0s2HH344bdo09bkB8I6qBILSdVdLiAjJQsGjK4U5DQAyTMozKjMBjYLfYU0+ouK9996rqKhQDyg9Pf/88+vXr1efIQCPqEogKF13tYSIkCwUPLpSmNMAIMOkPKMyE9Ao+B3W5CMqZs2aVVNTox5Qeqqurn7ggQfUZwjAI6oSCErXXS0hIiQLBY+uFOY0AMgwKc+ozAQ0Cn6HNfmIikGDBqlHk84GDx6sPkMAHlGVQFC67moJESFZKHh0pTCnAUCGSXlGZSagUfA7rMlHVPzyl7+sqqpSDyg91dTU9O/fX32GADyiKoGgdN3VEiJCslDw6EphTgOADJPyjMpMQKPgd1iTj6gYPnx4Jn2vxLBhw9RnCMAjqhIIStddLSEiJAsFj64U5jQAyDApz6jMBDQKfoc1+YgKY9ePPPJIZvwGx5QpU3SdSSCbUZVAUKHlYiIkCwWPrhTmNADIMCnPqMwENAp+hzX5iApj1zU1NTNmzFi4cKF6WOljxYoV06dPP3z4sK4zCWQzqhIIykcuPnr0qNrkAhGShXxElyKFOQ0AMkzKMyozAY2C32FNPqLCuo6vvfba+PHj33zzza8fWtRt2rRpwoQJy5YtMx/qOpNANqMqgaB85OLmzZsPGTJk0aJFnsoTREgW8hFdihTmNADIMCnPqMwENAp+hzX5iArlOi5ZsqSsrGz27Nm7du2yt0fNwYMHFyxYMGnSpL/+9a/V1dVWu64zCWQzqhIIykcubtas2aJFi4YMGdKyZUv35QkiJAv5iC5FCnMaAGSYlGdUZgIaBb/DmnxEhXgdt27d+uSTT5aVlU2fPn3NmjWHDh1SR6TIhx9++PTTTxsHNnXqVPG7MHSdSSCbUZX4/+Xk5KhNcMdHLm7WrJm5cPToUffliRAiJHlhkIwtJ2ObXiU8hl69ejVt2lRtdc1HdClSmNMAIMOkPKOGMBNwkPCWl16C32FNPqLC+Tru379/xYoVU6dOnThxYmlp6axZs15//fXPPvtMHZccVVVV77777sKFC42DNPZuHENFRcW2bdvUcTa6ziSQzdKsKrF3796crxjLancAXbt2VZsCSN5xJkmQG62PXGxVJSxuyhNuIqTWdvLdnHnliQc5DxZxIwEDLBnbVNh3Ie5O5GakmzHx+IguRQpzGgBkmJRnVDczgeTNwZJ3202J4HdYk4+ocHMdLTt27HjppZdmzJhRWlo64Zzx48dPmTLlmWeeMdrXrl378ccff/nll+pqjnbt2mWs9dprr1VWVhpbHjNmzIMPPmj8O3bs2LKysoULF7777rv2z2g403UmgWyWZlUJf384hS9djtMS5CB95OLYqoTFoTzhJkJqbc/FzZNSxrhZJSEtG1EkY5sKf0HrZqSbMfH4iC5FCnMaAGSYlGdUNzMBf7ez8KX82ILfYU0+osLNdXR24MCBjz/++NVXX/373//+zDPPmG+sGDdu3MRzHnroIXPBMnbsWHPBHPP4448ba61atWrdunVbt25Vt+6RrjMJZLM0rkpYFestW7bkfMVYtkauXLnSbLQq5fFuVLFvMrcX2mfMmGE2ijsS2TduHadYvDf2a23Q3pUjHb+4BXGkeKjiSKvL/lDcUTw+crFDVcISW54YP368um+JdcKtBfuzU55p7MPYUxTwZNa6DjCH0+51m87hIWrSpEl+fr6xYPxrLJuN4jatRnPLZqO1oCzHPhTPZzw+okuRwpwGABkm5Rk1U+eKFvG2ax9pLYs7ypGeUTzB77AmH1Hh5jqmEV1nEshmaVaVEN87JyZr485RXFysNIojxYe5ubnW8ujRo5cuXVrruLpC7BVXj7dgP37rYMQtuH+m4siSkhJj+fzzzzf+NZaVXkNhYaG1LGrmi3r549u3b1///v2NVZo3bz579mx1918nPnGxUXzi4ikSVxdHittUxpjEALOfamuA+226P06RMbJfv37GQt++fZt+NfESt2kdm7Fl55EJHzofUq2OO30KcxoAZJiUZ9SMnyuKMwFxm2Kj+IziCX6HNfmICjfXMY3oOpNANkuzqoRZQlZGinnZ3mj/z3Nr2Xia1oDamNwtpnJxRyKxV1w93oLzYI2N4kPxjh6Pj1zspirh770S4nMUGxM+dF5dbBQfio3iGDs34x3GuDlOhdlrvC6ME+68uvvGhA+dD6nWV3QpUpjTACDDpDyjZvxc0U48TveNCedywe+wJh9R4eY6phFdZxLIZmlWlTAZI4202759e/Nh068+BGEyG+152S7eAOeHJnFHIrHX3hh7GMqC8+CEjeKhiiPFh+IbCOPxkYsdqhKxxQhP3ythf+K6/hs/4MkUG8UxLVq0sPZiHbxJHO+wTTfHqTB7jdPes2dP59XdN4oPxfMZj4/oUqQwpwFAhkl5RnUzEzCl6VxRnAnYR1rL4o7sIxMKfoc1+YgK99cxLeg6k0A2S7OqhL3u65yCxcba+Gs5P3RoFNlHWsdsb4w9DGXBebCnRos4UnxoZ93R4/GRi2OrEg7FCIubCBGfo9iY8KG4ukUcKT4UGxOO8TpeeSgevLgRizgyYKObh858RJcihTkNADJMyjOqm5lAOs4VxUbnAc69bgS/w5p8RIWb65hGdJ1JIJulWVVCTNb2z/VZn8dzyMvm/wYrjcp48bOC4o5E4nE6NyoLTV1/r4TYKB6qOFJ8KH6sMR4fudiqSrgpRlh8R4i1YP8eBKUr9qGukyk2OgdYwuMUG8VDEhtF4kixUTxOqzfhwYvnMx4f0aVIYU4DgAyT8ozqeyYg3nocboshzxUt4h3W/g5Wq1HckbjNeILfYU0+osLNdUwjus4kkM3SrCohfrJAbHTIy+ed++S89VD8NkHxe5XFHYnEkWJjTsyff+ZCjvQtys5bsC+7H2kyx4tP3/mZ1vrKxc2aNXNfjLC4iRDxOVpPx/6bEfYu8Ws+Y1fP8XUyfQRYwuNMuE03x6kQR4rbFI9TbHR/nPH4iC5FCnMaAGSYlGdUNzMB8S4jNubEvy2GMFdUPoJhFjXEm6md1SjuSFwlnuB3WJOPqHBzHdOIrjMJZLM0q0pkD0/3ldTykYubN2/uvhhhIUKykI/oUqQwpwFAhkl5RmUmoHF+GPwOa/IRFW6uo/2ZanzWsazy0MqVK2Mb7UWfeHSdSSCbUZWIqKTmX7185GJPxQgLEZKFfESXIoU5DQAyTMozanbOBMS3RQQX/A5r8hEVbq6jfSYccFbcokULtcnG2nhxcbH4rpOEe9d1JoFsRlUCQYWWi4mQLBQ8ulKY0wAgw6Q8ozIT0Cj4HdbkIyrcXMcmTZrk5+cbC8a/xrLZKBZochJ96tn6Do54q5sL9mWxMR5dZxLIZlQlEFRouZgIyULBoyuFOQ0AMkzKMyozAY2C32FNPqLCzXVs2rRpv379jIW+ffvGfrW2fbmp7RvincsK/hrtv+oi0nUmgWxGVQJBhZaLiZAsFDy6UpjTACDDpDyjMhPQKPgd1uQjKtxcR7MucN65rx0ViwVJbbR/r4Tyy2KxdJ1JIJtRlUBQoeViIiQLBY+uFOY0AMgwKc+ozAQ0Cn6HNfmIiokTJ6pHE8MsEJg/0epcQRAb7W9wsJbFke4b45k6dar6DAF4RFUCQem6qyVEhGSh4NGVwpwGABkm5RmVmYBGwe+wJh9R8cADD1RVVakH9HViXcB94549e5o0aZJzjo+vkBAbRTU1NeXl5eozBOARVQkEpeuulhARkoWCR1cKcxoAZJiUZ1RmAhoFv8OafETFxo0bKyoq1AP6OrEu4L7RXpWwvu1SHGkt+PsNjueff37Dhg3qMwTgEVUJBKXrrpYQEZKFgkdXCnMaAGSYlGdUZgIaBb/DmvxFxWOPPbZx40b1mGzEuoD7H9EQP8Ehrm59hcTKlSutVezfK+Hwa6wffvjhtGnT1OcGwLsIVSXKy8u3bt2qvtwRbTU1NWVlZeq1TA4iJNtoia4U5jQAyDApz6jMBHTRcoc1+YuKxsZG42ouXLhQPTJNcqRShV4rVqx47LHHzpw5oz43AN5FqCpRV1c3cuRIbjbpZdGiRWvWrFGvZXIQIdlGS3SlMKcBQIZJeUaN/kxg7ty5alOM/fv3q02aGGcm4fc1mLTcYU1BosI4hgkTJrz55pvq8QVmf1uE9QkOXTZt2lRaWvrSSy+pzweAXxGqShhOnTo1c+bMyUgTRkZ+/vnn1auYTERI9tAVXanNaQCQSaKQUaM8Exg7dmzz5s2N+5faYWP0tmzZsn///pMmTVL7Ahs2bJjxR3jr1q0vu+yyvn37Dh48eMSIEePGjVOG6brDmgJGRWNj4/Lly8vKymbPnr1r1y61ABAlBw8eXLBggXHh5v9/7d17dBXlufhxULoOnLOWSD2e1csPEIFwSQIJBw+XUkArEUW0R6pRDDa0VmugoHCogqgIgUADAS8QDOAqgogQKoaS2CMqdxFFLVKgQGrkFuQe7iQx/OaX+TEd3nn2zM7s2cy+fD9/ZM1+3nfemb33vLPmebL37EWLqqqq1GcCIASRVZUAAG9xTgMAr3BGtZefn/+DH/zA8fUpKysbMGDAXXfdtXPnTrUtZKtXr27evPnUqVNffvnlrKystLS0Vq1adejQ4f777x89erSW+Wu7V15erq4WAk+Oipqamn379s2aNSsnJycvL2/t2rVHjx5VqwI+2bp165w5c7QdmzZt2rZt27RdVfceQMioSgCIZZzTAMArnFFtaMlqt27dMjIyxo8fr7ZJFixYkJiYqGXglZWValtoioqKUlJSysrKjEh5ebn2rs2dO3f06NH3339/hw4dWrVqlZaWlpWV9fLLLxcXF+/cudP1P/+9PSq0l/HUqVPvvffe1KlTJ06cmJ2dPXv27A8++EB7Omq1IDyOHTv26aefLlmyRP9QyaRJkxYvXrx//36KEUBYUZUAEMs4pwGAVzij2li9enWfPn02b96s/VXbAigvL3/kkUduu+02z39acuHChV26dDl06JDacJmWfn/xxRdvv/32hAkTMjMzO3fu3LJly5MnT6r9ghDWo6K6uvrgwYMffPBBfn6+XqTQdnj8+PFTpkz54x//+N57761fv3779u3aM1WrC7b27t2rrbVq1aply5bNnDnzueeeGzt27PPPP//iiy9qI//pT3/66quvLl68qO4NgLChKgEglnFOAwCvcEa1oeX2CxcurKqqSkhIOH78uNoc2PLly1NTU4cNG3b48GG1LQSvvPJK7969T5w4oTZInnrqKdc/yXGVj4qamprq6uozZ8784x//WLNmTVFR0YIFC6ZNm6bt//jx4yfVGjdu3MQrvfjii3rThAkTtJ4zZ87U3qxVq1Z99tlne/fu1QbkoxCAv6hKAIhlnNMAwCucUQM5cOBAu3btzp07py0PGjRIS5XVHra0HFvLnBMTE1977TXX36Sw0jLwfv36nT17Vm240s6dO5OTk0+dOqU2BIejAkDoqEoAiGWc0wDAK5xRA5kyZcrYsWP15YKCglGjRl3ZHpTS0tIHH3ywV69e69evV9vcGjlyZHp6uv2tKzIyMubMmaNGg8ZRASB0VCUAxDLOaQDgFc6oIi3nT0lJ2bVrl/5wx44d3bp1u7JLHZSUlHTp0iUjI8OTX+iorq5+tJa2oLbVWr16ddeuXe3LFvY4KgCEjqoEgFjGOQ0AvMIZVVRUVDRgwADjYU1NTYcOHfbt22fqUjeVlZVz5sxJTk5+6qmnDh48qDbXkTZaenr6yJEj1YZLl86dO9e0adNBgwYdO3ZMbQsaRwWA0FGVABDLOKcBgFc4o4oGDBig3EgiKytr0aJF5ogLp06dysnJadeu3aRJkyoqKtTmujh79my/fv0mTJigxJcvX/6zn/1szJgx2la0bUXgb3AAiBNUJQDEMs5pAOAVzqhWu3btSklJUb4BsWjRoqysLHPEtfLy8pEjRyYnJ7/00kunT59Wm4N24sSJ3r17v/LKK0ZE2+euXbtu2LBBW96/f7+2lcTExGnTptX1tpccFQBCR1UCQCzjnAYAXuGMajV27NgpU6YowX379nXo0MHDH5vcs2fPkCFDkpKSZsyYUdeqgeHQoUNdunRZuHCh/nDOnDkZGRnmDl9//fWwYcO0rbz88suOv9xh4KgAEDqqEgBiGec0APAKZ1TFuXPn2rVrd+DAAbXh0qVu3brt2LFDjYamtLR06NChiYmJ06dPd/edjrKyspSUlKKiolOnTiUnJ4s31NyzZ88TTzyhtc6aNUv/rVN7HBUAQkdVAkAs45wGAF7hjKpYuHBhZmamGq01atSogoICNeqF0tLSYcOGJSYm5ubmHj16VG12sn379uTk5Icffvipp55S20z+/ve/P/744x06dJg1a5b95yY4KgCETq1KrF+/XjuzrFq1SokDQDRauXKldk7z8LffASBukX8q+vTps3r1ajVaq6ioaNCgQWrUO19//fXvf//7hIQE7e+ePXvUZluffvpp+/bty8vL1QaLnTt3/va3v01OTp4xY0agT2dwVAAInVqVOHTo0LXXXpuRkfERAES5mTNntmjRonHjxu7uKw4AMPuI/NNky5Yt3bp1C3TziOPHjyckJFRVVakNnjp69OjUqVOTk5N/+ctfbty4UW0O7PDhw2oosN27dw8fPrxdu3bjxo3TMgWllaMCQOjUqoQmOzv72muvrQcA0S8lJYUPSgCAJ8g/zYYNG5afn69GTfr06bN582Y1GgYXLlxYsGDBT3/607S0tGXLll28eFHt4YWDBw8+//zzbdu2HT58+NatW404RwWA0AlVCc233367du1a/Z+NABCl9u/fr57dAABufUT+ednZs2dvvvnmbt26/frXv54yZUpRUdH27duV3wcdP358Xl6eORJu//u///vQQw8lJia+8MILpaWlarMXTpw4MXPmzM6dO999993vvPOO9pQ5KgCETq5KAAAAAGbkn2ZaQr59+/aioqIpU6b8+te/7tmz5w9/+EPtr1GnKCgo+O///m91tfDbu3fvpEmTOnToMGDAgOXLlyu1Ek9UV1eXlJSkp6e3b98+MzPze9/7HkcFgFBQlQAAAIAzqhI2jhw5oqXo5jpFr169brrppmB+XDMcKisrV6xYkZ6enpSUNG7cuK+++krt4YV9+/YNHTr0xhtv7NKly6uvvrp37161BwAEgaoEAAAAnFGVsLFz585evXopwcpaSvAq+/rrr6dMmdKlS5cePXpMmzZNe6j2CI1+VMycOXPUqFHJycl33HHHyy+/XFZWpvYDgMCoSgAAAMAZVQkb69evHzBggBqNJFu2bBk7dmyHDh3uvPPOgoIC669puGM+Kr777rsNGzY8/fTTHTt27NmzZ05OzieffFJdXa2uAwBXoioBAAAAZ1QlbCxfvvyxxx5To5Gnurp6zZo1w4cPT0hIuOuuu6ZNm/bll1+qneoi0FGxZcuWyZMn9+nTp02bNk888cTixYvLy8uVPgCgoyoBAAAAZ4HyT2jmzZs3ZswYNRrBqqqqNmzYMH78+J/85CcdO3YcMWJEcXHx2bNn1X5OHI+KQ4cOvfXWW7/97W/btm3bu3fvcePGffjhh37dbgNAZKIqAQAAAGeO+Wc8mzJlyrRp09RolCgrK5s7d256enqrVq369es3bty4kpKSY8eOqf0kwR8VNTU1W7ZsmTFjxn333deyZcu6bghADKMqAQAAAGfB559xaNSoUfPnz1ej0eb8+fMbN26cMWPGww8/3KZNm+Tk5IyMjPHjxy9btuyLL744efKkuoLbo8LFhgDEMKoSAAAAcOYu/4wTv/rVr1auXKlGo9zBgwf/8pe/vPTSS48//nhaWlpCQkK7du3uvPNO7eG4ceNee+21d999Nz8//9prry0uLlZXrotgNrRp06a9e/eePn1aXTlilJeX771SaWnpBifLli1728mqVavMq6xYseKdd95Zt27dJ5d9/vnn5g4iFxvS7d6923hGfLAFYUJVAgAAAM6oSti45557tLRZjcYcLSn97LPPtJR41qxZzz333G9+85vevXvfeOONLVq0+NGPfnTLLbf06dPnvvvuGzx48PDhw8eOHTu1lp7xLlmyxEh0tUTalLz/f999953Nhu69915t/FatWukbuv322/v16/fggw8++uij2raeq5Vfa/bs2fPnzy+oNW/evHdqaTm53qpZvHixtj9z5szRd083YcKE4SZDhgy5r9bPf/7zfrX+8z//M9WkWbNmP7hS+/btO3TokJyc3P4ybblHjx7dunW7xUQbp4OJFjE/1GjPsaWJ9nyVDWmbbt68edOmTf/PZT/+8Y/1Jm2heS1tkDZt2ui7pO2t/tZor+FDDz2UmZn52GOPmZ+sYeDAgfqzNtOegrHz2oD6hrTx9UhaWprWRxtzeO27oL2S2suuv9fbt28/ePCg6fABAqIqAQAAAGdUJWx07959z549ajQOGEdFdXX13r17t27dqqWjxcXFRtqfm5urZ7y/+93vjET3nnvuMRJdgzX9tqGl4lq+nZSUpOXJbdu21TLwhIQEI5PXc3JN69at9Sz9pptuMlp/+MMfqsMFpm9Iz+3NOnfurO3zHXfc8c/0vdb9999/RaJvqs7oXn31VfPHEwoLC41ija6srMxcrLlw4YL6ogd2+vRpfa2//vWv2lAlJSXaJgoKCrTtPvfcc/pbcOutt2r7rz017Ulp+z948OBnn31W26sVK1Zs27YtyDueXrUNIU5QlQAAAIAzqhI2tAQ4Pu+GwFERvQ4dOvTFF1+sXLlyzpw548eP/9WvfnXbbbe1aNGiY8eO991337PPPrtgwYIvv/zy/Pnz6pp1dNU2hOhFVQIAAADOyD8DqaysbNq0aU1NjdoQBzgqYk95efmaNWsKCgqefPLJ22+/vXnz5rfeeuuoUaMKCwu/+eYbtXcIrtqGEPmoSgAAAMAZ+WcgWnKVkpKiRuMDR0XMq66u3rZt25w5cx577DHtOO/UqdPIkSNLSko8/wrGVdsQIhBVCQAAADgj/wxES6V+9rOfqdH4wFERb0pLSwsKCh544IGEhITBgwcvX748TN+8UDb07rvvhmlDiARUJQAAAOCM/DOQ1atXp6enq9H4wFERt06fPl1YWJiZmdm2bdusrKz33nuvsrJS7eSFU6dOvf322w8++GBCQsKQIUPef//96upqtROiHFUJAAAAOCP/DETLzbSsTI3GB44KnDlzZunSpQ899FD79u2ffPLJNWvWhOkeK0ePHp0/f37//v1TUlJycnL27t2r9kDUoioBAAAAZ+Sfgbz22mvPP/+8Go0PHBUwHDlyZO7cuXfccUfnzp1nzJhRXl6u9vDIrl27XnjhhcTExPT09KKioqqqKrUHog1VCQAAADgj/wxk4sSJL730khqNDxwVsPrqq6+efvrptm3bZmZmhu8LF5WVlcuXL7/vvvtSU1Nnzpx54sQJtQeiB1UJAAAAOCP/DOSpp55688031Wh84KhAIOfOnVu0aFG/fv1SU1OnTp165MgRtYdHtm3bNnz48DZt2jzzzDN79uxRmxENqEoAAADAGflnII888shf/vIXNRofOCrgaPv27c8880xCQsKoUaNKS0vVZo8cPnw4Nzc3OTn5N7/5zbZt29RmRDaqEgAAAHBG/hnIXXfdtWXLFjUaH7w9Ko4cOfIRYlRRUdHQoUMTEhLuvvvu1157TW22tXHjxiDvoHnu3LmCgoKUlJRBgwZ9+umnajMiFVUJAAAAOPvI0/wzlvzXf/1XWVmZGo0PHh4VGzZsaNy4cT3EtPr16//rv/7rjTfeeMMNN/zLv/yL2hxYUlLSV199pR40AVRWVr7xxhtdunRJT0///PPP1WZEHqoSAAAAcOZh/hljbr755jNnzqjR+ODhUZGamqq9kitXrtT/PY4Y9uGHH06ePLlz5869evWaNWuW2mzx5ptvNm3a9Lrrrgu+MKGpqqpauHBhp06dMjMzd+7cqTYjklCVAAAAgLOPvMs/Y8m5c+datGihRuOGV0dFWVmZNs7s2bPVBsSu7777rrCwsFu3bsF8ouHAgQNNmzZNSkoK8qschosXLxYUFCQnJ2dlZe3du1dtRmSgKgEAAABnXuWfMUbLc2655RY1Gje8OirWrVunjbNq1Sq1AbHO/IkG+3thLlmyRDtIVqxYoTYE4cyZM3l5ee3atZs4ceKpU6fUZviNqgQAAACceZV/xpjPP/+8b9++ajRueHVUeDUOotTFixdnzZqVmJj44osvBqoaVFVV/ehHP7rnnnvUhqB9++23I0aM6NChw/z586urq9Vm+IeqBAAAAJyRN4ref//9jIwMNRo3vDoqvBrHMHr06Pfee0+NxpMwvQLnz59/8sknN2/erDaERt/bI0eOjBgxomPHjr/85S/ffPNNtVNttwYNGhw8eFBtqIu//e1v999/f+/evTdu3Ki2wSdUJQAAAODM87wxNrz11ltakqZG44ZXR4V1HC3/fPKyRYsW/bNrAEoSfv31148bN87U7oF58+YZu6TZs2eP2uNKYaoLWIkbCscroBkxYoQ2cmFhodpQF9YdNu/t1q1bW7ZsecMNN8ycOdPcR7N79+769evn5OQocReKi4s7d+6clZV16NAhtQ1XHVUJAAAAOLPmjdC88sor2dnZajRueHVUWMe5vtZNtZKSkqxZt0JJwsORkz/22GPazlxzzTX6jm3atEntcaW67oPW2d2dNcQN3XLLLa+++qoSDJ24rToZP358w4YNlUGse/v973+/ZcuWY8aMUb7Q0bt379atW9f1npeic+fO5eTktG/fvqCgoKqqSm3GVURVAgAAAM6seSM0L7zwQn5+vhqNG14dFdZxzNmvsWz+H7v9hyO0h+np6cpHLfRvHyhBbZzp06crQRvKhmxWV3qKWzcHtVfAeJrWMcXVddZKQW5urtbN/PqIq4sbsqH1//GPf2wuH4gjBHqbvvvuO61bw4YN69evb95h695eqq1TXHfdddqb2KlTp5KSEiO+YMEC7YVavXq1qW9ISktLta306dOnTj87Cm9RlQAAAIAza94IzdChQ5cuXapG44ZXR4V1HLEqIQYXL16sLWi5bu/evbWFsrIyvbVerZtuukn7q2e8Q4YM0SPmoNjThrX8YV1d3KWMjAzz1pcvX37Jskv6nVPFMceMGWPuqafl4oY0d9111zXXXGPez3A8dz1Sv359YwR9r8S36cKFC88///x1112n/VXGse6tTu+2adOmHj16DB48uLy8/FLtBxy0+KBBg5TOIdJmcXJy8oQJE86fP6+2IfzqqQEAAADAwpo3QvPggw/G82vi1VFhHUfLPPVMW6M16f+fF9Pdhx9+WM+NteRcW1i/fr3eqlmzZo25p7i62NOG0kdcPdAuiVsXg9YxmzdvPnnyZKWnuCGlj/Wh/YZsWPtoEW3T+hdPzMNat9W9e/ebbrpJ/2CROI5160awsrIyNzc3MTFx8eLFl2orLI0aNTpx4oTSP0RHjx594oknunbtumHDBrUNYVZPDQAAAAAW1rwRmttvv33r1q1qNG54dVRYx9HTXT1tzsrKMoLWdNfxoX22LAZtBLOhQA+NOotxYwVxdXPQuOFCTk6OdrApqysrmlm3br8hcRCFtY84QqCg+elry19++eXlYYSRrcHt27f36dPn4Ycffv/997WjxXovTE+sWrWqU6dOY8eOPXfunNqGsKmnBgAAAAALa94ITUpKSoi/UxjVvDoqrOM4pqk2Wbfy0DFbtgZtBLOhQA+NOotG/+BDcnLyv//7v4+rJX4kxKB/UUJfV7kvg9jfunXrfopBG9Y+4ghisHnz5vrOX3/5wx3mO1lYRxaDVVVVeXl5iYmJbdu27dSpk7nJQxUVFUOGDOnevftnn32mtiE86qkBAAAAwMKaN0LTrFmzyspKNRo3vDoqrONYM9JLtfcmyKg1zunzAmJiHHzQRjAbcnw4efJk/RYMJ0+erGdi82UKI7hw4UL75y4Gxf0Ugza0Pnfffbc5V7++9hMQ+o+kGiPYvE3GWkrQGnn99dfrXb79p2Lbtm0pKSlNmjRx95MlQSouLu7YseOkSZPieYJfNfXUAAAAAGBhzRtRUVGRkJCgRuOJV0eFdRxrmnqp9gXXs/frLZ8XaNSokRacMWPG/v37LwXIt40+GiPjFXuKVqxYoa2oDdK3b1/7DemUXfpBLX3rjRs31j8rMX36dP3pXF9748lf/OIX1nF0xupaN/vnLu5niM/doHTTHl577bWPP/64Pqz+pGzeJmMtJRhMxOzw4cPX1/4+a1FRkdrmnaNHjz7yyCPay/iPf/xDbYOn6qkBAAAAwMKaN6K0tLR79+5qNJ54dVRYx7FPSi9ZOhgfOrD5GQjzBxMyMzOVVmXZ6uc//7mxej3bDemUXQp+6+JuGKu3bdvWfkPifga/dXsNGzbURjBuCaGt1bVrV2VYM3FYPbhp0ya9afbs2fWu/FiENWI1aNCg73//+z/5yU+ysrIqKirUZu+8/vrriYmJb7/9ttoA79RTAwAAAICFNW/EJ5980r9/fzUaT7w6KoIc5+LFi/p/+83/8I9qykcY9F8GjWRa/q/tsHFLCLHoEOTblJ+fr7XqfYwbmup++tOfKhGr1atXayu+/vrrzz33XKdOnfTiS5js2LHj1ltv1XbpzJkzahu8QFUCAAAAzoLMG+NKcXHx4MGD1Wg88eqoCHIc8R/+UU25r0SgBD5iiVWJ4N+mJ598UuvTu3dvtSEINTU1rVu31tddt25d586dR48e7fjDGYcPH1ZDwblw4cL//M//9OjRY8eOHWobQkZVAgAAAM6CzBvjyhtvvDFq1Cg1Gk+8Oiq8GgdxJScnp379+rt3775U+yGOYcOG2f9wRmlpaWJi4q5du9SGoBUWFiYlJfFtDs9RlQAAAIAz8karvLw8/fZ+ccuro8KrcRBXDh482KBBg9GjRxsR/YczcnJyrD+cUVVV1bdv34yMjNtuu+3ChQtKa/D+/ve/9+zZc+TIkdZNwDWqEgAAAHBG3mg1ZsyYuXPnqtF44tVRsWLFCm2c6dOnfwTURffu3W+44YY///nPRuTdd9/t169f165d58+fb+r4UVZW1p133qktDBgwYNCgQeamuiopKbn33nt79uz5pz/9SW2DLf0XYayoSgAAAMDZRx7ln7Hk8ccfX758uRqNJ14dFfoPZAJeadSo0X/8x3/827/9m/7we9/7nvbwmmuuqVf7u6o33nij/mMiodAG18bRRlYbYCslJWX9+vXKGYCqBAAAAJx5lX/GkgEDBlgvr+OKV0fFn//853q1P8ewGqiLDz74QDtszJ+VMBQWFt5+++09e/b84x//2LFjx9zcXKNp7ty5bdq00TqYursxffr0hISE8ePHqw0IYObMmS1atGjcuPHJkyfNZwCqEgAAAHD2kUf5Zyzp1atXnN+Q36ujwqtxALOampp58+a1bNly+PDhSlN+fn7//v2rqqqUeF3t3r27a9euOTk52rbUNkhWrlypTXalnktVAgAAAM7IG62SkpKOHDmiRuOJV0eFV+MAipKSki5dupw5c0aJ19TUDBw4MCcnR4m7cOzYsXvvvffRRx89f/682gYLcbJTlQAAAIAz8VIynlVXVzdt2lT7qzbEE6+OCq/GAcwOHz7csWPHTz/9VG2odfTo0dTU1LVr16oNdVdZWTl06NC77777+PHjahuuJE52qhIAAABwJl5K2jtx4sQf/vCHSZMmTUSUqGuG5uKoEHk1DmCWkZExZcoUNWqiHfCpqalHjx5VG1zRznU9evTYt2+f2gATcbJTlQAAAIAz8VLSXm5urnaBXoHoUVhY+Pbbb6tvZGAujgqRV+MAhvnz5/ft29fxzhE5OTkDBw706q4Q8+bNS01N/dvf/qY24DJxslOVAAAAgDPxUtLexIkT1awXEa9O37R3cVSIvBoH0B05cqRNmzZ9+vR55ZVXtm3bpjabVFVV9e/fPz8/X21wa8WKFcnJyVu2bFEbUEuc7FQlAAAA4Ey8lLRHVSIaTZ06VX0jA3NxVIi8GgcwnD17dtWqVWPGjOnevXvHjh2HDRu2bNmyY8eOqf0uXdq/f39ycvIXX3yhNrj14YcfJiUlbdy4UW1AgMlOVQIAAADOxEtJe1QlohFVCcSeb7755o033hg8eHCrVq369u2bk5OzadMm85c7iouLu3bteurUKdNKIdm4cWNSUhKHtJU42alKAAAAwJl4KWmPqkQ0oiqBGFZVVbVp06acnJy+ffu2atVq8ODBb7zxxjfffKM1PfPMM0888YS6Qgg+++yzpKSkNWvWqA3xTZzsVCUAAADgTLyUtEdVIhpRlUCcOHbs2LJly4YNG9axY8fu3buPGDGiRYsWixYtUvuFYPPmzUlJSevXr1cb4pg42alKAAAAwJl4KWmPqkQ0iqKqxMWLF2fNmjUZV9GUKVMKCwvVdyLM3nrrrQkTJqi74qmRI0f+4he/uOWWW5o3b/773/9ebQ7B7373u4SEhOzsbLUhJuTn51dWVqpvmC1xslOVAAAAgDPxUtIeVYloFC1ViQsXLowaNWrXrl3qE0CYLV26dO3ater7ETbaUbFkyRJ1J8Lm0KFDf/3rX9VoaL799ls1FCu0Cfj0009fvHhRfdsCEyc7VQkAAAA4Ey8l7VGViEbRUpXIz8+nJOGLkydP1unnY0OUnZ2tbVHdCUQMbRoWFBSob1tg4mSnKgEAAABn4qWkPaoS0ShaqhKTJ09Wdx1Xi/biq+9H2HAaiXy5ubnq2xaYONmpSgAAAMCZeClpj3QiGlGVgCOqEjAL/aRBVQIAAADOxEtJe6QT0Sj0BMMFF+NQlfARVQmYhX7SoCoBAAAAZ+KlpL14SCeaNWumhqJc6AmGCy7GoSrhI6oSMAv9pEFVAgAAAM7ES0l7julEkyZNml124MABtfmqCL6sIPbs1auXGgqBuImrLPQEwwUX41CV8BFVCZiFftKgKgEAAABn4qWkPcd0wpyE+5WQB7/d4Hu6dhU24Sj0BMMFF+NQlfARVQmYhX7SoCoBAAAAZ+KlpD3HdEKsSmgLxcXFygcoduzYoUc02rIe1FqNoH3PZtKYRpP5oTimTumpSUtLa9KkiTkirt4s8NYV1k1UBB7T6GAs1/W5i0JPMFxwMQ5VCR9RlYBZ6CcNqhIAAABwJl5K2nNMJ8yptfFVCC3PHzhwoNJBTMLNwW7dulmDxrI4ZmZmprbcoEED7a+2rAeNcTSJiYk2PXXmzSkP7bcuElvFXRI3JAaD37ou9ATDBRfjUJXwEVUJmIV+0qAqAQAAAGfipaQ9x3RCvK+EOXM2ShVivi3e00HsKQbFh2bB9LTpE8zWFfatFU5jOgbFV0wReoLhgotxqEr4iKoEzEI/aVCVAAAAgDPxUtKeYzohJuFi0Fy/MDqIX20QexoLyrL1YevWrY11lW9nKD3FoLghMSgSW8VdEsd0fO7BCD3BcMHFOFQlfERVAmahnzSoSgAAAMCZeClpzzGdEBPm4INmnTp10hfEnuag0sHmoU1ToKC4uhgUia2Oq4sbMohBG6EnGC64GIeqhI+oSsAs9JMGVQkAAAA4Ey8l7TmmE2LCLAaN+ylUmO6zIN5wQexpk9grD43VBw4cGCGflRB3yfw5ESPo+NyDEXqC4YKLcahK+CiWqhJ1nSCwCv2kQVUCAAAAzsRLSXuO6YSYD4hB8csawQebBa4L6P2Ne1gaq+u/W2HTU7wFZl23rlC+grF8+fIK213SGUHHrQcj9ATDBRfjBFmVOH78uP6CiDcr9ZD44keyuh4YZhFVlRBvT2NDeeKhvA6BxNXBUOHFSYOqBAAAAJyJl5L2HNMJeCLEjEIReoLhgotxgqxKGLx9lazM44d7W54IZScjqipR11de6RPMKnVV113yXYg7GfpJg6oEAAAAnImXkvYc0wm4Fr5/xoaeYLjgYpxQqhLiq2fuYCyLPUXm1Y3fOhFXN/63v2PHDnNTs8sfhzF3FkcQexqjNasd2aan0WR+KG4okMivSojBQA+tL5H4aog9Rc3i6WCo8OKkQVUCAAAAzsRLSXuO6QQiUOgJhgsuxgmlKiHekcTcwVgWe4qUvM4aNJYDLWgJ6sCBA/WI/V6Ze1pHMy+LPcUvH5lXNz9rUcRWJex/S1h84uJLJK4u9hSJreKYgRai6GCo8OKkQVUCAAAAzsRLSXuO6QQiUOgJhgsuxgmlKmFmxHvV0pe1nflnj8sCjaATW8XkMNCCfWcPg+JD47kHI6KqEk2k+0oE/8TFnsEHRWKruHqgBfvOHgbFh3U6GCq8OGlQlQAAAIAz8VLSnmM6gQgUeoLhgotxQqlKtG7dutllTUy/tGLN3wL1tDJWCRS0Dq4s2Hd2DJqTc/ue4sM6fWg/oqoSyhOxBu2fuNgz+KBIbBVXD7Rg39kxeDUPhgovThpUJQAAAOBMvJS055hOGLQL37S0NDXqH21nrCmoGAyRNmYwF/1XU+gJhgsuxgmmKmH+l2+glExcti4oy1bmVvvvEQRasO9cp6BB7Ck+NOvUqZMaulLkVyXM7J+4+BIFHxSZW2P+YKjw4qRBVQIAAADOxEtJe47phEG5Jq7rf+pENtfZwRBXF4MhCseYoQg9wXDBxTjBVCUCpWHGF/UHDhyoVJoSEhL69OljPLTpqRC3ZR9UFsxf+7e/lYAYNN/2wrgXgNhTfBj8HTQqoqEqYT6HKG+czetg/wqLQZHY0z6oLETRwVDhxUmDqgQAAACciZeS9hzTCd2JEyduvfVWc8Tm6jl4rlfUiauLwRDV9Svc4RZ6guGCi3GCqUoEKm8Zcf0nCUxr/L87SiQkJBgPbXoqxG2JQWMcZaGZ9BMJ9iOYl4PvqdP7Gzc4FFcPJPKrEmb2T1x8icRXQ+wpElcXg8Y4ykKz6DkYKrw4aVCVAAAAgDPxUtKeYzqhU66PlYj97+o1k67djSblobWnOKbR3/xQDAb/83s2G6qwDOuv0BMMF1yME0xVIrpE1GFgL6IcE+KiAAAN4ElEQVSqEo6i6IU1RNc+h37SoCoBAAAAZ+KlpL0g0wnr9bc1ogSNZfPnnI2g+Ft3Yk9xTPGhGBRXd9yQ9Zf2xG35JfQEwwUX41CV8FHkVyXs64CRL4oOhgovThpUJQAAAOBMvJS0F2Q6Yb3+tkaUoJjtK2vZPLS//5z4UAyKq4sbsv+ahrgtv4SeYLjgYpzYq0pEkcivSuBqCv2kQVUCAAAAzsRLSXtBphPWnNwaUYJiCcCmZGB9aA3WtX9FED+/Z7D/z624il9CTzBccDEOVQkfUZWAWegnDaoSAAAAcCZeStoLMp2w5uTmiP3nGsRgMA+twbr2tz60CZpZf2nPcZWrKfQEwwUX41CV8BFVCZiFftKgKgEAAABn4qWkvSDTiSB/gyP4YDAPrcG69q8I4uf3DDa/tGf/5Y6rL/QEwwUX41CV8BFVCZiFftKgKgEAAABn4qWkveDTCSWTF7/vIAbNK4qDiL//ZxDHFG+WKQbF1ZsFvSGd2N9HoScYLrgYh6qEj6hKwCz0kwZVCQAAADgTLyXtBZ9OaIl6WlqaGo0D2rO23mbCX6EnGC64GIeqhI+oSsAs9JMGVQkAAAA4Ey8l7ZFORKPQEwwXXIxDVcJHVCVglpubq75tgYmTnaoEAAAAnImXkvZIJ6JRtFQl8vPzd+3ape49wu/kyZM5OTnq+xE22dnZ2hbVnUDE0KZhQUGB+rYFJk52qhIAAABwJl5K2qMqEY2ipSpx4cKFUaNGUZi4+pYuXbp27Vr1/Qgb7ahYsmSJuhOIDNoEfPrppy9evKi+bYGJk52qBAAAAJyJl5L2qEpEo2ipSmi0XGjWrFmTcRVlZ2cvXrxYfSfCbOnSpep+IDLk5+dXVlaqb5gtcbJTlQAAAIAz8VLSHlWJaBRFVQkAUUec7FQlAAAA4Ey8lLRHVSIaUZUAED7iZKcqAQAAAGfipaQ9qhLRiKoEgPARJztVCQAAADgTLyXtUZWIRlQlAISPONmpSgAAAMCZeClpj6pENKIqASB8xMlOVQIAAADOxEtJe7m5ufv27VOzXkSwwsLCd955R30jA3NxVIi8GgdAhBMnO1UJAAAAOBMvJe2dPHnyD3/4w6RJkyYiSqxdu1Z9F225OCpEXo0DIMKJk52qBAAAAJyJl5KIc14dFV6NAyDCiZOdqgQAAACciZeSiHNeHRVejQMgwomTnaoEAAAAnImXkohzXh0VXo0DIMKJk52qBAAAAJyJl5KIc14dFV6NAyDCiZOdqgQAAACciZeSiHNeHRVejQMgwomTnaoEAAAAnImXkohzXh0VXo0DIMKJk52qBAAAAJyJl5KIc14dFV6NAyDCiZOdqgQAAACciZeSiHNeHRVejQMgwomTnaoEAAAAnImXkohzXh0VXo0DIMKJk52qBAAAAJyJl5KIc14dFV6NAyDCiZOdqgQAAACciZeSiHNeHRVejQMgwomTnaoEAAAAnImXkohzXh0VXo0DIMKJk52qBAAAAJyJl5KIc14dFV6NAyDCiZOdqgQAAACcrVu3TruUXLVqldqAOFZcXKwdFR9//LHaUEdiogIg9oiTnaoEAAAAnJWVlWmXkrNnz1YbEMceeOCBRo0anT9/Xm2oIzFRARB7xMlOVQIAAABBSU1Nvfnmm1euXPkR4l5JSUl6erqWXeTl5akHSt19JCUqAGKPONmpSgAAACAoGzZsaNy4cT2gVsOGDfPy8mpqatQDpe7ERAVA7BEnO1UJAAAABOv06dNr167V/1uOePbxxx+H/sUNw0dSogIg9oiTnaoEAAAAAD+JiQqA2CNOdqoSAAAAAPwkJioAYo842alKAAAAAPCTmKgAiD3iZKcqAQAAAMBPYqICIPaIk52qBAAAAAA/iYkKgNgjTnaqEgAAAAD8JCYqAGKPONmpSgAAAADwk5ioAIg94mSnKgEAAADAT2KiAiD2iJOdqgQAAAAAP4mJCoDYI052qhIAAAAA/CQmKgBijzjZqUoAAAAA8JOYqACIPeJkpyoBAAAAwE9iogIg9oiTnaoEAAAAAD+JiQqA2CNOdqoSAAAAAPwkJioAYo842alKAAAAAPCTmKgAiD3iZKcqAQAAAMBPYqICIPaIk52qBAAAAAA/iYkKgNgjTnaqEgAAAAD8JCYqAGKPONmpSgAAAADwk5ioAIg94mSnKgEAAADAT2KiAiD2iJOdqgQAAAAAP4mJCoDYI052qhIAAAAA/CQmKgBijzjZqUoAAAAA8JOYqACIPeJkpyoBAAAAwE9iogIg9oiTnaoEAAAAAD+JiQqA2CNOdqoSAAAAAPwkJioAYo842alKAAAAAPCTmKgAiD3iZKcqAQAAAMBPYqICIPaIk52qBAAAAAA/iYkKgNgjTnaqEgAAAAD8JCYqAGKPONmpSgAAAADwk5ioAIg94mSnKgEAAADAT2KiAiD2iJOdqgQAAAAAP4mJCoDYI052qhIAAAAA/CQmKgBijzjZqUoAAAAA8JOYqACIPeJkpyoBAAAAwE9iogIg9oiTnaoEAAAAAD+JiQqA2CNOdqoSAAAAAPwkJioAYo842alKAAAAAPCTmKgAiD3iZKcqAQAAAMBPYqICIPaIk52qBAAAAAA/iYkKgNgjTnaqEgAAAAD8JCYqAGKPONmpSgAAAADwk5ioIBTai5mdnT0RQZs0adLUqVMrKirUlxKeEic7VQkAAAAAfhITFbi2bNmyJUuWVKCO9u3bl5eXp76a8JQ42alKAAAAAPCTmKjAtcmTJ6sJN4KjvXTqqwlPiZOdqgQAAAAAP4mJClyjKuEaVYlwEyc7VQkAAAAAfhITFbhGVcI1qhLhJk52qhIAAAAA/CQmKnCNqoRrVCXCTZzsVCUAAAAA+ElMVOAaVQnXqEqEmzjZqUoAAAAA8JOYqMA1qhKuUZUIN3GyU5UAAAAA4CcxUYFrVCVcoyoRbuJkpyoBAAAAwE9iogLXqEq4RlUi3MTJTlUCAAAAgJ/ERAWuUZVwjapEuImTnaoEAAAAAD+JiQpcoyrhGlWJcBMnO1UJAAAAAH4SExW4RlXCNaoS4SZOdqoSAAAAAPwkJipw7WpWJZo1a6aGohlViXATJztVCQAAAAB+EhMVuBa+qoS1BtGrVy8lojhw4ECzy7RltdnCuomriapEuImTnaoEAAAAAD+JiQpcC1NVokWLFk2aNFGjTsxVhmAqDsH0CR+qEuEmTnaqEgAAAAD8JCYqcC2YqoSW/BcXFysfYQhUQTh+/Lj2UP9rBDVpaWmOdQrzKsYHK2w+QKFsYseOHUZPbVnsY0TEYc2drSsqqEqEmzjZqUoAAAAA8JOYqMC1YKoSTZo0GThwoL6cmJioL4gJ/IoVK/r372/tECiiEDt069bNWDa2npmZqXVu0KCB9ldb1oPiLgVaEIcVRwiEqkS4iZOdqgQAAAAAP4mJClwLpioh5urBB20iirp2sHlo3SXrgkFssnZTUJUIN3GyU5UAAAAA4CcxUYFrnlclDA0aNEhLSzP6mLsFonfQdkkfQQ+2bt3aGFP5DogyoNZq9DSaAi2Iwxp9lGURVYlwEyc7VQkAAAAAfhITFbjmuiphFmTQGlGIGxKDwTxUgsqCzbA2QTOqEuEmTnaqEgAAAAD8JCYqcC2YqoR4Xwnz3SLF21has3prRGEMrm3OGFMM6pQBjZ4VpttGBKpKiMM6PikzqhLhJk52qhIAAAAA/CQmKnAtmKpEM+k3OJQOakgKWiMKoyigb84maG4y7nYp/qyGETR+oUNvshlWJwbNqEqEmzjZqUoAAAAA8JOYqMC1IKsSauhKNh1m1qqo/WVQsaIRsWyelI6qRLiJk52qBAAAAAA/iYkKXHNdlRA/mCB69tlntT6bN29WGyJP8E+qgqpE+ImTnaoEAAAAAD+JiQpcC6YqARFViXATJztVCQAAAAB+EhMVuEZVwjWqEuEmTnaqEgAAAAD8JCYqcI2qhGtUJcJNnOxUJQAAAAD4SUxU4BpVCdeoSoSbONmpSgAAAADwk5iowDWqEq5RlQg3cbJTlQAAAADgJzFRgWtUJVyjKhFu4mSnKgEAAADAT2KiAteoSrhGVSLcxMlOVQIAAACAn8REBa5lZ2er2TaCQ1Ui3MTJTlUCAAAAgJ/ERAWuvfXWW0uWLFETbjjZt29fXl6e+mrCU+JkpyoBAAAAwE9iooJQaC9mdnb2RAQtJydn6tSpFRUV6ksJT4mTnaoEAAAAAD+JiQqA2CNOdqoSAAAAAPwkJioAYo842alKAAAAAPCTmKgAiD3iZKcqAQAAAMBPYqICIPaIk52qBAAAAAA/iYkKgNgjTnaqEgAAAAD8JCYqAGKPONmpSgAAAADwk5ioAIg94mSnKgEAAADAT2KiAiD2iJOdqgQAAAAAP4mJCoDYI052qhIAAAAA/CQmKgBijzjZqUoAAAAA8JOYqACIPeJkpyoBAAAAwE9iogIg9oiTnaoEAAAAAD+JiQqA2CNOdqoSAAAAAPy0bt06LVFZtWqV2gAgthQXF2uT/eOPPzYHqUoAAAAA8FNZWZmWqMyePVttABBbHnjggUaNGp0/f94cpCoBAAAAwGepqak333zzypUrPwIQi0pKStLT0+vVq5eXl6dMf6oSAAAAAHy2YcOGxo0b1wMQuxo2bJiXl1dTU6NMf6oSAAAAAPx3+vTptWvXqv9gBRATPv74Y+WLGwaqEgAAAAAAwB9UJQAAAAAAgD+oSgAAAAAAAH9QlQAAAAAAAP74v7komrtnreWTAAAAAElFTkSuQmCC;" vertex="1" parent="1">
            <mxGeometry x="-300" y="-40" width="1415" height="516" as="geometry" />
          </mxCell>
        </UserObject>
      </root>
    </mxGraphModel>
  </diagram>
</mxfile>
